<svg width="32" height="32" viewBox="0 0 32 32" fill="none" xmlns="http://www.w3.org/2000/svg">
<path fill-rule="evenodd" clip-rule="evenodd" d="M26.6683 14.4977C26.1142 13.4649 25.3964 12.526 24.5527 11.7123C24.4771 11.6434 24.389 11.5871 24.2945 11.5495C23.9167 11.0613 23.2052 10.5856 21.8955 10.2851L24.4078 3.83163L27.3484 2.41073C27.6191 2.31684 27.7954 2.06646 27.8143 1.78479C27.8521 1.24021 27.2917 0.845868 26.7817 1.05869L23.5452 2.60477C23.3626 2.68615 23.2052 2.83637 23.1296 3.0179L20.3969 10.0535C18.7283 9.89077 16.7259 9.97841 14.6669 10.3164C14.0813 10.4103 13.502 10.5292 12.9353 10.6607L11.4493 6.66716C11.4493 6.66716 11.4493 6.64838 11.4619 6.64838C12.186 6.51693 12.9165 6.64838 13.5902 7.04272C13.7665 7.14288 13.9869 7.16165 14.1821 7.08028C14.371 6.99891 14.5158 6.82364 14.5662 6.62334C14.5725 6.59204 15.2651 4.01315 16.94 3.34339C17.173 3.2495 17.3493 3.04293 17.3871 2.79256C17.4437 2.37317 17.1478 2.02264 16.77 1.99761L9.10068 1.44052C8.89919 1.428 8.71658 1.49685 8.57806 1.64708L3.19442 7.26806C2.95515 7.5247 2.92996 7.90653 3.15664 8.19446C3.33924 8.42606 3.66037 8.4824 3.93742 8.38225C5.63752 7.75004 7.80987 9.20849 7.82876 9.22727C7.99247 9.3462 8.20026 9.37124 8.38916 9.31491L8.43324 9.30239C8.60325 9.24605 8.73547 9.1146 8.81103 8.9456C9.11327 8.19446 9.59182 7.59356 10.19 7.18043C10.1963 7.17417 10.2089 7.18043 10.2215 7.18669L11.6382 10.9987C8.60954 11.8875 6.17274 13.2834 5.93346 14.8796C4.37189 18.0719 4.43486 21.8338 6.12236 24.9573C7.558 27.6238 9.97592 29.583 12.9353 30.4844C13.8484 30.7598 14.774 30.9225 15.7059 30.9789C17.7964 31.1041 19.8806 30.6722 21.7821 29.7082C24.5275 28.3123 26.5424 25.965 27.468 23.092C28.3873 20.2189 28.1103 17.1705 26.6746 14.504L26.6683 14.4977ZM10.4104 5.50916L10.297 5.55923C9.33366 5.9661 8.4962 6.71723 7.9295 7.68119C7.92321 7.68745 7.91691 7.68745 7.91061 7.68745C7.3628 7.40577 6.46238 7.00517 5.46751 6.88624C5.45492 6.88624 5.44862 6.86746 5.46121 6.85494L9.30847 2.83637C9.30847 2.83637 9.31477 2.83011 9.32106 2.83011L14.8117 3.2182C14.8117 3.2182 14.8306 3.23072 14.8243 3.2495C14.1947 3.96933 13.7791 4.81436 13.5335 5.46534C13.5335 5.4716 13.5209 5.47786 13.5146 5.4716C12.5512 5.11481 11.5249 5.10855 10.5552 5.45282C10.5048 5.46534 10.4545 5.49038 10.4104 5.50916V5.50916ZM22.9596 12.6074C23.0037 12.8578 22.5755 13.4962 21.2154 14.2161C20.9006 14.3851 20.5543 14.5415 20.1891 14.6918L21.3288 11.7623C22.4496 12.019 22.9218 12.3946 22.9596 12.6074V12.6074ZM7.46985 15.1362V15.0924C7.54541 14.3162 10.2215 12.5886 14.8558 11.8249C16.5433 11.5495 18.1742 11.4431 19.572 11.5245C19.6539 11.5245 19.7357 11.537 19.8176 11.5433L18.3442 15.3302C17.4752 15.5806 16.5433 15.7997 15.5736 15.9624C10.7693 16.7574 7.60208 15.9061 7.47614 15.18V15.1362H7.46985ZM25.7868 22.6475C24.9997 25.1388 23.2682 27.1669 20.9132 28.3749C18.5583 29.583 15.8696 29.8209 13.332 29.0447C10.7945 28.2685 8.72288 26.5722 7.49503 24.2625C6.25459 21.9402 6.04051 19.2236 6.84018 16.7574C7.70912 17.3646 9.11327 17.6901 10.7504 17.7902C12.3057 17.8841 14.0813 17.7714 15.8192 17.4772C18.1742 17.0891 20.3465 16.4006 21.9333 15.5618C23.117 14.9359 23.7908 14.3225 24.1434 13.7716C24.496 14.2223 24.8171 14.7043 25.0942 15.205C26.3346 17.521 26.5739 20.1625 25.7805 22.6475H25.7868Z" fill="black"/>
<path fill-rule="evenodd" clip-rule="evenodd" d="M25.7862 22.6572C24.9991 25.1484 23.2675 27.1765 20.9125 28.3845C18.5576 29.5926 15.8689 29.8305 13.3314 29.0543C10.7938 28.2781 8.72222 26.5818 7.49437 24.2721C6.25393 21.9498 6.03984 19.2332 6.83952 16.767C7.70846 17.3742 9.11261 17.6997 10.7497 17.7998C12.305 17.8937 14.0807 17.781 15.8185 17.4868C18.1735 17.0988 20.3458 16.4102 21.9326 15.5715C23.1164 14.9455 23.7901 14.3321 24.1427 13.7812C24.4953 14.2319 24.8165 14.7139 25.0935 15.2147C26.334 17.5307 26.5732 20.1721 25.7799 22.6572H25.7862Z" fill="#FFBC00"/>
<path fill-rule="evenodd" clip-rule="evenodd" d="M10.4092 5.50717L10.2958 5.55725C9.33243 5.96411 8.49498 6.71524 7.92828 7.6792C7.92198 7.68546 7.91568 7.68546 7.90939 7.68546C7.36158 7.40378 6.46116 7.00318 5.46629 6.88425C5.45369 6.88425 5.4474 6.86547 5.45999 6.85295L9.30725 2.83438C9.30725 2.83438 9.31354 2.82812 9.31984 2.82812L14.8105 3.21621C14.8105 3.21621 14.8294 3.22873 14.8231 3.24751C14.1935 3.96735 13.7779 4.81237 13.5323 5.46335C13.5323 5.46961 13.5197 5.47587 13.5134 5.46961C12.55 5.11282 11.5237 5.10657 10.554 5.45084C10.5036 5.46335 10.4532 5.48839 10.4092 5.50717V5.50717Z" fill="#FFBC00"/>
<path fill-rule="evenodd" clip-rule="evenodd" d="M7.46875 15.1383V15.0945C7.54431 14.3184 10.2204 12.5907 14.8547 11.8271C16.5422 11.5517 18.1731 11.4453 19.5709 11.5266C19.6528 11.5266 19.7346 11.5392 19.8165 11.5454L18.3431 15.3324C17.4741 15.5828 16.5422 15.8018 15.5725 15.9646C10.7682 16.7595 7.60098 15.9083 7.47505 15.1822V15.1383H7.46875Z" fill="#FFBC00"/>
<path fill-rule="evenodd" clip-rule="evenodd" d="M22.9541 12.6107C22.9982 12.861 22.57 13.4995 21.2099 14.2193C20.8951 14.3883 20.5488 14.5448 20.1836 14.695L21.3233 11.7656C22.4441 12.0223 22.9163 12.3978 22.9541 12.6107V12.6107Z" fill="#FFBC00"/>
<path fill-rule="evenodd" clip-rule="evenodd" d="M22.9541 12.6107C22.9982 12.861 22.57 13.4995 21.2099 14.2193C20.8951 14.3883 20.5488 14.5448 20.1836 14.695L21.3233 11.7656C22.4441 12.0223 22.9163 12.3978 22.9541 12.6107V12.6107Z" fill="#FFBC00"/>
<path fill-rule="evenodd" clip-rule="evenodd" d="M7.46875 15.1383V15.0945C7.54431 14.3184 10.2204 12.5907 14.8547 11.8271C16.5422 11.5517 18.1731 11.4453 19.5709 11.5266C19.6528 11.5266 19.7346 11.5392 19.8165 11.5454L18.3431 15.3324C17.4741 15.5828 16.5422 15.8018 15.5725 15.9646C10.7682 16.7595 7.60098 15.9083 7.47505 15.1822V15.1383H7.46875Z" fill="white"/>
<path fill-rule="evenodd" clip-rule="evenodd" d="M22.9502 12.6107C22.9943 12.861 22.5661 13.4995 21.206 14.2193C20.8912 14.3883 20.5449 14.5448 20.1797 14.695L21.3194 11.7656C22.4402 12.0223 22.9124 12.3978 22.9502 12.6107V12.6107Z" fill="white"/>
</svg>
