<svg width="164" height="32" viewBox="0 0 164 32" fill="none" xmlns="http://www.w3.org/2000/svg">
<path fill-rule="evenodd" clip-rule="evenodd" d="M18.1511 21.3207C17.5198 23.311 16.14 24.9387 14.2685 25.903C12.3915 26.8674 10.252 27.0571 8.22969 26.4381C6.20734 25.8195 4.55962 24.4592 3.57635 22.614C2.58756 20.7523 2.41434 18.5837 3.05695 16.6103C3.74958 17.0952 4.86684 17.3571 6.17417 17.4351C7.41438 17.5077 8.82754 17.4183 10.2131 17.1843C12.0901 16.8722 13.8218 16.3258 15.0844 15.6569C16.0229 15.1552 16.5647 14.6702 16.844 14.2242C17.1288 14.5809 17.3802 14.971 17.5982 15.3724C18.587 17.2287 18.7768 19.3358 18.1458 21.326L18.1513 21.3205L18.1511 21.3207Z" fill="#FFBC00"/>
<path fill-rule="evenodd" clip-rule="evenodd" d="M5.90172 7.60791L5.81222 7.64705C5.0414 7.97043 4.37641 8.57254 3.92967 9.34724C3.92414 9.35276 3.91861 9.35276 3.91282 9.35276C3.47713 9.12421 2.75659 8.80661 1.96893 8.71177C1.95787 8.71177 1.95208 8.69496 1.9634 8.68944L5.02481 5.47294C5.02481 5.47294 5.03034 5.46743 5.03587 5.46743L9.40989 5.774C9.40989 5.774 9.42674 5.78503 9.42095 5.79633C8.91813 6.37059 8.58853 7.04494 8.39319 7.56903C8.39319 7.57454 8.38213 7.58032 8.37634 7.57454C7.60552 7.2903 6.78995 7.28479 6.01887 7.55773C5.97965 7.56876 5.94069 7.58558 5.90725 7.60239L5.90172 7.60791Z" fill="#FFBC00"/>
<path fill-rule="evenodd" clip-rule="evenodd" d="M3.56138 15.2783C3.61719 14.6597 5.75668 13.2771 9.44359 12.664C10.7899 12.4409 12.0859 12.3574 13.2032 12.4244C13.2703 12.4244 13.3316 12.4357 13.3988 12.4412L12.2257 15.468C11.5386 15.6687 10.7957 15.8416 10.0191 15.9698C6.19263 16.6052 3.66747 15.9251 3.5669 15.3453V15.312H3.56138V15.2783Z" fill="white"/>
<path fill-rule="evenodd" clip-rule="evenodd" d="M15.8952 13.288C15.9286 13.4887 15.588 14.0015 14.5041 14.5758C14.2527 14.7095 13.9789 14.8377 13.6886 14.9549L14.5936 12.6137C15.4874 12.8144 15.8617 13.1154 15.8952 13.2883V13.288Z" fill="white"/>
<path fill-rule="evenodd" clip-rule="evenodd" d="M15.8952 13.288C15.9286 13.4887 15.588 14.0015 14.5041 14.5758C14.2527 14.7095 13.9789 14.8377 13.6886 14.9549L14.5936 12.6137C15.4874 12.8144 15.8617 13.1154 15.8952 13.2883V13.288Z" fill="white"/>
<path fill-rule="evenodd" clip-rule="evenodd" d="M18.8555 14.7988C18.4143 13.9681 17.8443 13.2212 17.1686 12.569C17.1127 12.5133 17.0401 12.4686 16.9674 12.4408C16.6657 12.0506 16.0961 11.6716 15.057 11.4317L17.0569 6.26967L19.4031 5.13244C19.6211 5.05442 19.7606 4.85923 19.7719 4.63068C19.7998 4.19591 19.3528 3.87805 18.9508 4.04539L16.3698 5.28297C16.2245 5.34996 16.1016 5.46686 16.0402 5.61738L13.8615 11.2421C12.5321 11.1139 10.9344 11.1808 9.29744 11.4538C8.83384 11.5318 8.37024 11.6267 7.9177 11.7325L6.73331 8.53835C6.73331 8.53835 6.73331 8.52154 6.74437 8.52154C7.31985 8.41567 7.90638 8.52154 8.44264 8.83362C8.58217 8.91716 8.76118 8.92846 8.91203 8.86147C9.06287 8.80026 9.18002 8.65525 9.21925 8.49343C9.22478 8.4711 9.77235 6.40312 11.1073 5.86774C11.2916 5.78972 11.4369 5.62816 11.4648 5.42745C11.5096 5.08752 11.275 4.80879 10.9733 4.79198L4.85629 4.358C4.69991 4.34697 4.54907 4.40266 4.43744 4.51956L0.152671 9.0183C-0.0371369 9.22452 -0.0539854 9.53109 0.124766 9.75964C0.270084 9.94353 0.527023 9.99371 0.744737 9.91017C2.09656 9.40289 3.82827 10.5735 3.84512 10.5848C3.97359 10.6796 4.14128 10.7019 4.29213 10.6573L4.32556 10.6463C4.45956 10.6016 4.57144 10.4957 4.62725 10.362C4.87314 9.76542 5.24722 9.28048 5.72214 8.94606C5.72767 8.94054 5.73899 8.94606 5.74452 8.95158L6.87284 12.0007C4.45956 12.7142 2.51567 13.8291 2.3256 15.1056C1.07986 17.6588 1.13015 20.6633 2.47644 23.1663C3.62161 25.3012 5.54892 26.8677 7.90638 27.5867C8.63271 27.8098 9.37009 27.938 10.113 27.9826C11.7776 28.083 13.4424 27.7373 14.9564 26.9681C17.1462 25.8477 18.7494 23.9746 19.4868 21.6723C20.2187 19.3758 20.0007 16.934 18.85 14.799H18.8555V14.7988ZM5.90089 7.60786L5.81138 7.64701C5.04057 7.97039 4.37584 8.57224 3.92883 9.3472C3.9233 9.35272 3.91751 9.35272 3.91198 9.35272C3.47629 9.12417 2.75576 8.80656 1.96809 8.71173C1.95704 8.71173 1.95124 8.69492 1.96256 8.6894L5.02398 5.4729C5.02398 5.4729 5.02951 5.46738 5.0353 5.46738L9.40932 5.77395C9.40932 5.77395 9.42617 5.78499 9.42038 5.79628C8.91755 6.37055 8.58796 7.0449 8.39236 7.56898C8.39236 7.5745 8.3813 7.58002 8.37551 7.5745C7.60469 7.29026 6.78912 7.28474 6.01804 7.55769C5.97882 7.56872 5.93985 7.58553 5.90642 7.60235L5.90089 7.60786ZM15.8947 13.2882C15.9281 13.4889 15.5874 14.0017 14.5036 14.576C14.2522 14.7097 13.9784 14.8379 13.688 14.9551L14.5931 12.6139C15.4869 12.8146 15.8612 13.1156 15.8947 13.2885V13.2882ZM3.56027 15.2784C3.61608 14.6598 5.75557 13.2772 9.44249 12.6641C10.7888 12.441 12.0848 12.3575 13.2021 12.4245C13.2692 12.4245 13.3305 12.4355 13.3977 12.4413L12.2246 15.4681C11.5375 15.6688 10.7946 15.8417 10.018 15.9699C6.19153 16.6053 3.66636 15.9252 3.5658 15.3454V15.3121H3.56027V15.2784ZM18.1516 21.3211C17.5203 23.3113 16.1405 24.939 14.269 25.9034C12.392 26.8677 10.2525 27.0571 8.23045 26.4385C6.20811 25.8198 4.56039 24.4596 3.57712 22.6143C2.58833 20.7526 2.4151 18.584 3.05771 16.6106C3.75034 17.0955 4.86761 17.3575 6.17494 17.4355C7.41515 17.508 8.82831 17.4187 10.2138 17.1846C12.0909 16.8725 13.8226 16.3261 15.0851 15.6573C16.0237 15.1555 16.5654 14.6706 16.8448 14.2245C17.1296 14.5812 17.381 14.9713 17.599 15.3728C18.5878 17.229 18.7776 19.3361 18.1466 21.3263L18.1521 21.3208L18.1516 21.3211Z" fill="black"/>
<path fill-rule="evenodd" clip-rule="evenodd" d="M3.56139 15.2783C3.6172 14.6596 5.75669 13.277 9.44361 12.6639C10.7899 12.4409 12.0859 12.3573 13.2032 12.4243C13.2703 12.4243 13.3317 12.4356 13.3988 12.4411L12.2257 15.468C11.5386 15.6687 10.7957 15.8415 10.0191 15.9697C6.19264 16.6052 3.66748 15.9251 3.56692 15.3453V15.3119H3.56139V15.2783Z" fill="white"/>
<path fill-rule="evenodd" clip-rule="evenodd" d="M15.8953 13.2878C15.9287 13.4885 15.5881 14.0013 14.5042 14.5755C14.2528 14.7093 13.979 14.8375 13.6887 14.9546L14.5937 12.6134C15.4875 12.8141 15.8619 13.1152 15.8953 13.2881V13.2878Z" fill="white"/>
<path d="M57.0123 13.1267C55.2805 11.4375 53.1913 10.5848 50.8283 10.5848C48.4653 10.5848 46.3985 11.4378 44.661 13.1322C42.9685 14.8547 42.1137 16.945 42.1137 19.303C42.1137 21.661 42.9685 23.7235 44.6668 25.4573C46.3927 27.1465 48.4654 27.9992 50.8228 27.9992C53.1803 27.9992 55.2805 27.1407 57.0067 25.4573L57.0178 25.4463C58.7105 23.7237 59.5653 21.6723 59.5653 19.3033C59.5653 16.9342 58.7105 14.8605 57.0123 13.1269V13.1267ZM50.8283 23.2443C49.7335 23.2443 48.8173 22.8707 48.0352 22.1016C47.2586 21.31 46.879 20.4014 46.879 19.3088C46.879 18.2162 47.253 17.302 48.0241 16.5215C48.8173 15.7468 49.7335 15.3678 50.8228 15.3678L50.8283 15.3733C51.9177 15.3733 52.8225 15.7468 53.5991 16.5215C54.3923 17.3075 54.7777 18.2217 54.7777 19.3088C54.7777 20.3958 54.3923 21.3045 53.5991 22.096C52.8225 22.8707 51.9232 23.2443 50.8283 23.2443Z" fill="black"/>
<path d="M75.1291 21.3491C74.0342 22.6255 72.9001 23.2445 71.6657 23.2445C70.5708 23.2445 69.6547 22.8709 68.8726 22.1017C68.0959 21.3102 67.7161 20.4015 67.7161 19.3089C67.7161 18.2164 68.0904 17.3022 68.8612 16.5217C69.6547 15.7467 70.5708 15.3677 71.6599 15.3677C72.9114 15.3677 74.0453 15.9808 75.1236 17.2352L75.4363 17.6032L79.3857 15.0892L79.0172 14.6042C78.0618 13.3556 76.9335 12.3634 75.6654 11.661C74.3804 10.9475 73.0344 10.5852 71.6544 10.5852C69.2914 10.5852 67.2246 11.4382 65.4873 13.1326C63.7946 14.8551 62.9401 16.9454 62.9401 19.3034C62.9401 21.6614 63.7946 23.7239 65.4929 25.4577C67.219 27.1466 69.2914 27.9996 71.6489 27.9996H71.6599C73.0286 27.9996 74.3359 27.693 75.5424 27.0964C76.7547 26.5001 77.7825 25.6471 78.5981 24.5656L78.8942 24.1697L75.5145 20.8975L75.1291 21.3491Z" fill="black"/>
<path d="M115.153 21.3491C114.058 22.6255 112.924 23.2445 111.689 23.2445C110.594 23.2445 109.678 22.8709 108.896 22.1017C108.119 21.3102 107.74 20.4015 107.74 19.3089C107.74 18.2164 108.114 17.3022 108.885 16.5217C109.678 15.7467 110.594 15.3677 111.683 15.3677C112.935 15.3677 114.069 15.9808 115.147 17.2352L115.46 17.6032L119.409 15.0892L119.041 14.6042C118.085 13.3556 116.957 12.3634 115.689 11.661C114.404 10.9475 113.058 10.5852 111.678 10.5852C109.315 10.5852 107.248 11.4382 105.511 13.1326C103.818 14.8551 102.964 16.9454 102.964 19.3034C102.964 21.6614 103.818 23.7239 105.516 25.4577C107.243 27.1466 109.315 27.9996 111.672 27.9996H111.683C113.052 27.9996 114.359 27.693 115.566 27.0964C116.778 26.5001 117.806 25.6471 118.622 24.5656L118.918 24.1697L115.538 20.8975L115.153 21.3491Z" fill="#FFBC00"/>
<path d="M97.1 13.1267C95.3683 11.4375 93.2791 10.5848 90.9161 10.5848C88.5531 10.5848 86.486 11.4378 84.7488 13.1322C83.0563 14.8547 82.2015 16.945 82.2015 19.303C82.2015 21.661 83.0563 23.7235 84.7543 25.4573C86.4805 27.1462 88.5531 27.9992 90.9103 27.9992C93.2676 27.9992 95.3683 27.1407 97.0945 25.4573L97.1056 25.4463C98.7983 23.7237 99.6528 21.6723 99.6528 19.3033C99.6528 16.9342 98.7983 14.8605 97.1 13.1269V13.1267ZM94.8655 19.3088C94.8655 20.3958 94.4801 21.3045 93.6869 22.096C92.9103 22.871 92.011 23.2443 90.9161 23.2443C89.8213 23.2443 88.9051 22.8707 88.123 22.1016C87.3464 21.31 86.9665 20.4014 86.9665 19.3088C86.9665 18.2162 87.3408 17.302 88.1117 16.5215C88.9051 15.7466 89.8213 15.3675 90.9103 15.3675L90.9161 15.373C92.0052 15.373 92.9103 15.7466 93.6869 16.5213C94.4801 17.3073 94.8655 18.2215 94.8655 19.3085V19.3088Z" fill="black"/>
<path d="M134.127 11.4958V12.5414C132.81 11.5292 131.257 11.0164 129.511 11.0164C127.219 11.0164 125.274 11.8828 123.731 13.5909C122.23 15.2348 121.468 17.2303 121.468 19.5216C121.468 21.8128 122.22 23.7876 123.703 25.3966C125.27 27.1236 127.225 27.9992 129.511 27.9992C131.271 27.9992 132.823 27.4935 134.127 26.4963V27.5423H138.493V11.4958H134.127ZM132.889 22.4523C132.077 23.2682 131.122 23.6649 129.969 23.6649C128.816 23.6649 127.858 23.2698 127.028 22.458C126.21 21.6308 125.812 20.6685 125.812 19.5163C125.812 18.3641 126.208 17.4092 127.021 16.5809C127.856 15.7644 128.82 15.3678 129.969 15.3678H130.035V15.357C131.147 15.372 132.082 15.7689 132.889 16.5691C133.722 17.4058 134.127 18.3681 134.127 19.5108C134.127 20.6535 133.722 21.6213 132.889 22.4523Z" fill="#FFBC00"/>
<path d="M161.184 11.2978V8.00909H156.871V11.2978H154.056V15.5743H156.871V27.5627H161.184V15.5743H164V11.2978H161.184Z" fill="#FFBC00"/>
<path d="M35.421 21.3492C34.3258 22.6257 33.192 23.2446 31.9573 23.2446C30.8624 23.2446 29.9463 22.871 29.1641 22.1019C28.3878 21.3103 28.0079 20.4017 28.0079 19.3091C28.0079 18.2165 28.3823 17.3023 29.1531 16.5218C29.9463 15.7471 30.8624 15.3681 31.9518 15.3681C33.203 15.3681 34.3371 15.9812 35.4152 17.2356L35.7282 17.6036L39.6776 15.0896L39.3087 14.6047C38.3536 13.356 37.2253 12.3638 35.9572 11.6614C34.6723 10.9479 33.326 10.5856 31.9462 10.5856C29.5832 10.5856 27.5164 11.4386 25.7789 13.133C24.0864 14.8555 23.2316 16.9458 23.2316 19.3038C23.2316 21.6618 24.0864 23.7243 25.7847 25.4581C27.5106 27.1473 29.5832 28 31.9407 28H31.9518C33.3204 28 34.6275 27.6934 35.8343 27.0968C37.0463 26.5002 38.0743 25.6475 38.8899 24.566L39.1861 24.1701L35.8064 20.8979L35.421 21.3495V21.3492Z" fill="black"/>
<path d="M150.983 11.1759C150.234 11.0651 149.723 11.0133 149.373 11.0133C148.21 11.0133 147.134 11.3023 146.175 11.8726V11.4983H141.803V27.571H146.175V17.9024C146.22 17.2496 146.484 16.6905 146.977 16.1985C147.522 15.6552 148.157 15.391 148.921 15.391C149.304 15.391 149.64 15.4453 149.92 15.5528L150.3 15.7033L151.369 11.2332L150.982 11.1759H150.983Z" fill="#FFBC00"/>
</svg>
