<svg width="100" height="100" viewBox="0 0 100 100" fill="none" xmlns="http://www.w3.org/2000/svg">
<path d="M50.5013 11.0742C28.7305 11.0742 10.918 28.8471 10.918 50.7368C10.918 70.5285 25.4055 86.9556 44.3263 89.9243V62.216H34.2721V50.7368H44.3263V41.9888C44.3263 32.0534 50.2242 26.5909 59.2888 26.5909C63.6034 26.5909 68.1159 27.343 68.1159 27.343V37.1201H63.1284C58.2201 37.1201 56.6763 40.168 56.6763 43.2951V50.7368H67.6805L65.8992 62.216H56.6763V89.9243C66.0037 88.451 74.4975 83.6919 80.6238 76.5056C86.7501 69.3196 90.106 60.1798 90.0846 50.7368C90.0846 28.8471 72.2721 11.0742 50.5013 11.0742Z" fill="currentColor"/>
</svg>
