<svg width="100" height="100" viewBox="0 0 100 100" fill="none" xmlns="http://www.w3.org/2000/svg">
<path fill-rule="evenodd" clip-rule="evenodd" d="M50 72C62.1502 72 72 62.1502 72 50C72 37.8497 62.1502 28 50 28C37.8497 28 28 37.8497 28 50C28 62.1502 37.8497 72 50 72ZM50 64.6667C58.1 64.6667 64.6667 58.1 64.6667 50C64.6667 41.8998 58.1 35.3333 50 35.3333C41.8998 35.3333 35.3333 41.8998 35.3333 50C35.3333 58.1 41.8998 64.6667 50 64.6667Z" fill="currentColor"/>
<path d="M71.9987 24.332C69.9736 24.332 68.332 25.9737 68.332 27.9987C68.332 30.0237 69.9736 31.6654 71.9987 31.6654C74.0238 31.6654 75.6654 30.0237 75.6654 27.9987C75.6654 25.9737 74.0238 24.332 71.9987 24.332Z" fill="currentColor"/>
<path fill-rule="evenodd" clip-rule="evenodd" d="M12.0658 21.6802C9.66797 26.3862 9.66797 32.5468 9.66797 44.868V55.1346C9.66797 67.4557 9.66797 73.6165 12.0658 78.3223C14.175 82.4619 17.5406 85.8276 21.6802 87.9366C26.3862 90.3346 32.5468 90.3346 44.868 90.3346H55.1346C67.4557 90.3346 73.6165 90.3346 78.3223 87.9366C82.4619 85.8276 85.8276 82.4619 87.9366 78.3223C90.3346 73.6165 90.3346 67.4557 90.3346 55.1346V44.868C90.3346 32.5468 90.3346 26.3862 87.9366 21.6802C85.8276 17.5406 82.4619 14.175 78.3223 12.0658C73.6165 9.66797 67.4557 9.66797 55.1346 9.66797H44.868C32.5468 9.66797 26.3862 9.66797 21.6802 12.0658C17.5406 14.175 14.175 17.5406 12.0658 21.6802ZM55.1346 17.0013H44.868C38.5864 17.0013 34.3162 17.007 31.0156 17.2767C27.8005 17.5393 26.1564 18.0155 25.0094 18.5999C22.2497 20.006 20.006 22.2497 18.5999 25.0094C18.0155 26.1564 17.5393 27.8005 17.2767 31.0156C17.007 34.3162 17.0013 38.5864 17.0013 44.868V55.1346C17.0013 61.4164 17.007 65.6862 17.2767 68.9869C17.5393 72.2022 18.0155 73.8464 18.5999 74.9933C20.006 77.7528 22.2497 79.9965 25.0094 81.4026C26.1564 81.9871 27.8005 82.4634 31.0156 82.7259C34.3162 82.9954 38.5864 83.0013 44.868 83.0013H55.1346C61.4164 83.0013 65.6862 82.9954 68.9869 82.7259C72.2022 82.4634 73.8464 81.9871 74.9933 81.4026C77.7528 79.9965 79.9965 77.7528 81.4026 74.9933C81.9871 73.8464 82.4634 72.2022 82.7259 68.9869C82.9954 65.6862 83.0013 61.4164 83.0013 55.1346V44.868C83.0013 38.5864 82.9954 34.3162 82.7259 31.0156C82.4634 27.8005 81.9871 26.1564 81.4026 25.0094C79.9965 22.2497 77.7528 20.006 74.9933 18.5999C73.8464 18.0155 72.2022 17.5393 68.9869 17.2767C65.6862 17.007 61.4164 17.0013 55.1346 17.0013Z" fill="currentColor"/>
</svg>
