<svg width="100" height="100" viewBox="0 0 100 100" fill="none" xmlns="http://www.w3.org/2000/svg">
<g clip-path="url(#clip0_84289_13117)">
<path d="M49.5848 12.2656C71.8523 12.2656 89.7811 26.7969 89.7811 44.8456C89.7811 53.6356 85.4461 61.3681 78.6473 67.4619C67.6298 78.3594 48.6473 89.3769 46.6561 88.5556C43.3748 87.2656 49.1161 80.2344 46.7723 77.1894C46.4198 76.7206 45.1298 76.8369 42.7861 76.4844C23.4511 73.9044 9.62109 61.1319 9.62109 44.7256C9.62109 26.6769 27.4336 12.2656 49.5811 12.2656H49.5848ZM26.7361 55.6231H33.5348C34.7086 55.6231 35.4098 54.6856 35.4098 53.5119C35.4098 52.6906 34.8248 51.6369 33.2986 51.6369H27.7898C27.3211 51.6369 27.3211 51.1681 27.3211 49.5256V37.6906C27.3211 36.6369 26.6161 35.5794 25.3298 35.5794C24.1561 35.5794 23.3386 36.5169 23.3386 37.6906V51.9894C23.3386 55.1544 24.8611 55.6231 26.7361 55.6231ZM42.0848 53.9844V37.6944C42.0848 36.6406 41.2636 35.5831 39.9736 35.5831C38.9198 35.5831 37.9823 36.5206 37.9823 37.6944V53.9844C37.9823 55.0381 38.8036 55.8594 40.0936 55.8594C41.1473 55.8594 42.0848 55.0381 42.0848 53.9844ZM61.3036 51.7569V37.4581C61.3036 36.4044 60.4823 35.5831 59.1923 35.5831C58.2548 35.5831 57.2011 36.1681 57.2011 37.4581V47.7706L50.4023 38.2794C49.4648 36.6369 48.2911 35.5831 46.8848 35.5831C45.1261 35.5831 45.0098 36.9894 45.0098 38.9806V53.9806C45.0098 55.0344 45.8311 55.8556 47.0011 55.8556C48.0548 55.8556 48.9923 55.1506 48.9923 53.9806V43.3156L55.7911 52.8069C57.3136 54.7981 57.6661 55.8556 59.5411 55.8556C60.8311 55.8556 61.2998 54.6819 61.2998 51.7531L61.3036 51.7569ZM74.4286 43.6719H68.4511V40.2744C68.4511 39.9219 68.5673 39.4531 69.1561 39.4531H74.4286C75.7186 39.4531 76.5398 38.7481 76.5398 37.4619C76.5398 35.9394 75.3661 35.4706 74.3123 35.4706H67.5136C65.4023 35.4706 64.3486 36.8769 64.3486 38.7519V51.9931C64.3486 54.3369 65.2861 55.6269 67.5136 55.6269H74.4286C75.9511 55.6269 76.5398 54.6894 76.5398 53.5156C76.5398 51.9931 75.3661 51.5244 74.4286 51.5244H69.2723C68.8036 51.5244 68.4511 51.1719 68.4511 50.8194V47.5381H74.6611C76.1836 47.5381 76.4198 46.3644 76.4198 45.5469C76.4198 44.3731 75.4823 43.6719 74.4286 43.6719Z" fill="currentColor"/>
</g>
<defs>
<clipPath id="clip0_84289_13117">
<rect width="100" height="100" fill="white"/>
</clipPath>
</defs>
</svg>
