<svg width="100" height="100" viewBox="0 0 100 100" fill="none" xmlns="http://www.w3.org/2000/svg">
<g clip-path="url(#clip0_84289_13073)">
<path d="M83.6 9.99936H16.85C15.9896 9.95906 15.1298 10.0888 14.3196 10.3813C13.5095 10.6737 12.765 11.1231 12.1287 11.7036C11.4924 12.2841 10.9769 12.9845 10.6116 13.7645C10.2464 14.5445 10.0385 15.3889 10 16.2494V83.1495C10.0504 84.95 10.7883 86.6635 12.0621 87.937C13.336 89.211 15.0492 89.949 16.85 89.9995H83.6C85.3505 89.9215 87.001 89.1605 88.1975 87.88C89.394 86.5995 90.041 84.9015 90 83.1495V16.2494C90.0145 15.4119 89.8575 14.5803 89.539 13.8056C89.2205 13.031 88.747 12.3295 88.1475 11.7443C87.5485 11.1591 86.836 10.7025 86.054 10.4024C85.272 10.1024 84.437 9.96521 83.6 9.99936ZM35 76.6995H23.35V41.0495H35V76.6995ZM29.45 35.6494C28.637 35.6777 27.827 35.5376 27.0708 35.2379C26.3145 34.9382 25.6284 34.4854 25.0556 33.9078C24.4828 33.3303 24.0356 32.6405 23.7421 31.8819C23.4485 31.1232 23.3151 30.3121 23.35 29.4994C23.3141 28.6779 23.4502 27.858 23.7497 27.0922C24.0493 26.3264 24.5056 25.6317 25.0893 25.0527C25.6731 24.4736 26.3715 24.0229 27.1396 23.7296C27.9078 23.4363 28.7288 23.3068 29.55 23.3494C30.3629 23.3211 31.173 23.4611 31.9292 23.7608C32.6855 24.0605 33.3715 24.5134 33.9443 25.0909C34.5172 25.6685 34.9644 26.3582 35.2579 27.1169C35.5515 27.8755 35.685 28.6867 35.65 29.4994C35.686 30.3209 35.5498 31.1408 35.2502 31.9065C34.9507 32.6723 34.4944 33.367 33.9107 33.9461C33.3269 34.5252 32.6285 34.9758 31.8604 35.2691C31.0922 35.5625 30.2711 35.692 29.45 35.6494ZM76.7 76.6995H65V57.1995C65 52.5495 63.35 49.3495 59.2 49.3495C57.911 49.3605 56.6565 49.77 55.6095 50.522C54.562 51.274 53.773 52.3315 53.35 53.5495C53.025 54.4625 52.889 55.432 52.95 56.3995V76.6995H41.45V41.0495H52.95V46.0495C53.9725 44.171 55.494 42.612 57.347 41.544C59.2 40.4765 61.312 39.9419 63.45 39.9994C71 39.9994 76.7 44.9995 76.7 55.6495V76.6995Z" fill="currentColor"/>
</g>
<defs>
<clipPath id="clip0_84289_13073">
<rect width="100" height="100" fill="white"/>
</clipPath>
</defs>
</svg>
