<svg width="100" height="100" viewBox="0 0 100 100" fill="none" xmlns="http://www.w3.org/2000/svg">
<g clip-path="url(#clip0_84289_13162)">
<path fill-rule="evenodd" clip-rule="evenodd" d="M49.504 10C27.596 10 10 27.7386 10 49.834C10 66.2341 19.628 79.9576 33.572 86.3184C33.572 78.8484 33.52 79.8111 39.212 55.5215C36.084 49.2091 38.516 38.7871 45.52 38.7871C55.24 38.7871 48.636 53.1981 47.512 58.8691C46.516 63.2213 49.836 66.5703 53.82 66.5703C61.456 66.5703 66.432 56.8609 66.432 45.4824C66.432 36.7781 60.46 30.418 50.168 30.418C31.868 30.418 27.228 50.7982 33.572 57.1953C35.168 59.6114 33.572 59.7245 33.572 62.8867C32.464 66.2305 23.612 61.3702 23.612 48.8301C23.612 37.4476 32.908 24.0605 51.828 24.0605C66.764 24.0605 76.724 35.105 76.724 46.8223C76.724 62.5529 68.092 73.9355 55.48 73.9355C51.164 73.9355 47.18 71.5903 45.852 68.9121C43.44 78.294 42.952 83.0504 39.212 88.3262C42.864 89.3305 46.516 90 50.5 90C72.408 90 90 72.2613 90 50.1699C89.008 27.7398 71.412 10 49.504 10Z" fill="currentColor"/>
</g>
<defs>
<clipPath id="clip0_84289_13162">
<rect width="80" height="80" fill="white" transform="translate(10 10)"/>
</clipPath>
</defs>
</svg>
