<svg width="100" height="100" viewBox="0 0 100 100" fill="none" xmlns="http://www.w3.org/2000/svg">
<g clip-path="url(#clip0_84289_13070)">
<path fill-rule="evenodd" clip-rule="evenodd" d="M81.2842 17.0337C85.5905 15.2205 90.2071 18.8619 89.4467 23.4721L80.4656 77.9258C79.5996 83.1761 73.8331 86.1888 69.0162 83.5723C64.9854 81.383 59.0052 78.0132 53.6155 74.4915C50.9242 72.7328 42.6834 67.0938 43.6963 63.0796C44.5624 59.6474 58.4161 46.7515 66.3328 39.0822C69.4425 36.0697 68.0262 34.3293 64.3537 37.1031C55.2432 43.9839 40.6164 54.4453 35.7795 57.3895C31.5119 59.987 29.2836 60.4303 26.6258 59.987C21.7724 59.1783 17.2727 57.9259 13.599 56.4031C8.63382 54.3448 8.87567 47.5214 13.5957 45.5343L81.2842 17.0337Z" fill="currentColor"/>
</g>
<defs>
<clipPath id="clip0_84289_13070">
<rect width="100" height="100" fill="white"/>
</clipPath>
</defs>
</svg>
