<svg width="100" height="100" viewBox="0 0 100 100" fill="none" xmlns="http://www.w3.org/2000/svg">
<path d="M51.7221 10.7023C56.0192 10.6367 60.2848 10.6708 64.5478 10.6367C64.6896 15.9681 66.8526 20.7666 70.294 24.3208L70.2887 24.3156C73.9926 27.652 78.8121 29.815 84.1251 30.1825L84.1986 30.1877V43.4072C79.1796 43.2812 74.4598 42.1236 70.2047 40.1338L70.4199 40.2231C68.3619 39.2335 66.6216 38.2176 64.9678 37.0836L65.1043 37.1728C65.0728 46.7515 65.1358 56.3301 65.0387 65.8746C64.7683 70.7387 63.1513 75.175 60.5578 78.8788L60.6103 78.7975C56.2738 85.0082 49.2493 89.0849 41.2615 89.3264H41.2247C40.9018 89.3421 40.5212 89.35 40.138 89.35C35.5967 89.35 31.3521 88.0847 27.7348 85.8876L27.8398 85.948C21.2563 81.9869 16.7151 75.2091 15.8751 67.3262L15.8646 67.2186C15.799 65.578 15.7675 63.9374 15.8331 62.3309C17.1193 49.786 27.6298 40.0813 40.4057 40.0813C41.8416 40.0813 43.2486 40.2047 44.6162 40.4383L44.4692 40.4173C44.5348 45.271 44.338 50.1272 44.338 54.9808C43.2276 54.5792 41.9466 54.3456 40.6105 54.3456C35.707 54.3456 31.5358 57.4799 29.9923 61.8557L29.9687 61.9345C29.6196 63.0553 29.4175 64.3442 29.4175 65.6777C29.4175 66.2185 29.4516 66.754 29.5146 67.279L29.5093 67.216C30.3808 72.5867 34.9851 76.6397 40.537 76.6397C40.6971 76.6397 40.8546 76.6371 41.0121 76.6292H40.9885C44.8288 76.5137 48.1626 74.4478 50.0473 71.395L50.0736 71.3477C50.7745 70.3712 51.2548 69.19 51.415 67.9063L51.4176 67.8696C51.7457 61.9975 51.6145 56.1595 51.646 50.2873C51.6775 37.0678 51.6145 23.8798 51.7116 10.6945L51.7221 10.7023Z" fill="currentColor"/>
</svg>
