<svg width="100" height="100" viewBox="0 0 100 100" fill="none" xmlns="http://www.w3.org/2000/svg">
<path fill-rule="evenodd" clip-rule="evenodd" d="M18.8347 50C18.8347 32.7871 32.7885 18.8333 50.0013 18.8333C67.2141 18.8333 81.168 32.7871 81.168 50C81.168 67.2128 67.2141 81.1667 50.0013 81.1667C43.8699 81.1667 38.1626 79.4001 33.3472 76.349C32.4511 75.7814 31.3529 75.6296 30.3364 75.9329L19.7795 79.0836L23.7543 69.7828C24.2241 68.6835 24.1285 67.4244 23.4982 66.4087C20.5422 61.6453 18.8347 56.0276 18.8347 50ZM50.0013 11.5C28.7384 11.5 11.5014 28.737 11.5014 50C11.5014 56.7397 13.2362 63.0838 16.285 68.5999L9.96303 83.3923C9.40415 84.7002 9.65188 86.2131 10.5986 87.2742C11.5454 88.3357 13.0205 88.7537 14.3833 88.3467L30.8811 83.4235C36.517 86.6538 43.0482 88.5 50.0013 88.5C71.2643 88.5 88.5013 71.263 88.5013 50C88.5013 28.737 71.2643 11.5 50.0013 11.5ZM58.4071 58.0021L53.5884 61.3964C51.3316 60.1108 48.8364 58.3164 46.3335 55.8135C43.7317 53.2116 41.8027 50.5254 40.3804 48.0614L43.4427 45.4621C44.7569 44.3467 45.1166 42.4662 44.307 40.9444L40.4051 33.611C39.8796 32.6236 38.9322 31.9299 37.8322 31.7273C36.7321 31.5247 35.5998 31.8353 34.757 32.5708L33.6002 33.5805C30.8181 36.0085 29.1728 39.9984 30.5365 44.0384C31.9502 48.2264 34.9673 54.818 41.1482 60.9989C47.798 67.6488 54.5527 70.2675 58.5028 71.2846C61.6855 72.1038 64.6973 71.0056 66.8196 69.2764L68.9884 67.5091C69.9161 66.7534 70.4166 65.5921 70.3293 64.3986C70.2417 63.2051 69.5773 62.1293 68.5491 61.5166L62.3954 57.85C61.1524 57.1097 59.5904 57.1691 58.4071 58.0021Z" fill="currentColor"/>
</svg>
