<svg width="100" height="100" viewBox="0 0 100 100" fill="none" xmlns="http://www.w3.org/2000/svg">
<g clip-path="url(#clip0_84289_13174)">
<path fill-rule="evenodd" clip-rule="evenodd" d="M41.9538 60.3445V37.8972C49.9226 41.6469 56.0944 45.2692 63.3938 49.1745C57.3734 52.5134 49.9226 56.2597 41.9538 60.3445ZM86.364 26.7331C84.9894 24.9221 82.6466 23.5124 80.1524 23.0456C72.821 21.6534 27.0839 21.6495 19.7566 23.0456C17.7564 23.4206 15.9753 24.3269 14.4453 25.7351C7.99855 31.7187 10.0187 63.8068 11.5726 69.0046C12.226 71.2545 13.0708 72.877 14.1346 73.9421C15.5052 75.3502 17.3819 76.3198 19.5374 76.7546C25.5738 78.0032 56.6722 78.7013 80.0248 76.9421C82.1764 76.5672 84.0809 75.5664 85.583 74.0984C91.5437 68.1387 91.1374 34.2485 86.364 26.7331Z" fill="currentColor"/>
</g>
<defs>
<clipPath id="clip0_84289_13174">
<rect width="80" height="80" fill="white" transform="translate(10 10)"/>
</clipPath>
</defs>
</svg>
