<svg width="24" height="24" viewBox="0 0 24 24" fill="none" xmlns="http://www.w3.org/2000/svg">
<path d="M12 22C17.53 22 22 17.53 22 12C22 6.47 17.53 2 12 2C6.47 2 2 6.47 2 12C2 17.53 6.47 22 12 22ZM7.7 7.7C8.09 7.31 8.72 7.31 9.11 7.7L12 10.59L14.89 7.7C15.28 7.31 15.91 7.31 16.3 7.7C16.69 8.09 16.69 8.72 16.3 9.11L13.41 12L16.3 14.89C16.69 15.28 16.69 15.91 16.3 16.3C15.91 16.69 15.28 16.69 14.89 16.3L12 13.41L9.11 16.3C8.72 16.69 8.09 16.69 7.7 16.3C7.31 15.91 7.31 15.28 7.7 14.89L10.59 12L7.7 9.11C7.32 8.73 7.32 8.09 7.7 7.7Z" fill="#A0A0A0"/>
<path d="M7.69875 7.69997C8.08875 7.30997 8.71875 7.30997 9.10875 7.69997L11.9988 10.59L14.8888 7.69997C15.2788 7.30997 15.9087 7.30997 16.2987 7.69997C16.6887 8.08997 16.6887 8.71997 16.2987 9.10997L13.4088 12L16.2987 14.89C16.6887 15.28 16.6887 15.91 16.2987 16.3C15.9087 16.69 15.2788 16.69 14.8888 16.3L11.9988 13.41L9.10875 16.3C8.71875 16.69 8.08875 16.69 7.69875 16.3C7.30875 15.91 7.30875 15.28 7.69875 14.89L10.5888 12L7.69875 9.10997C7.31875 8.72997 7.31875 8.08997 7.69875 7.69997Z" fill="white"/>
</svg>
