<svg width="24" height="24" viewBox="0 0 24 24" fill="none" xmlns="http://www.w3.org/2000/svg">
<path fill-rule="evenodd" clip-rule="evenodd" d="M12 2C6.48 2 2 6.48 2 12C2 17.52 6.48 22 12 22C17.52 22 22 17.52 22 12C22 6.48 17.52 2 12 2ZM8.12 12.29L10 14.17L12.94 11.23L15.88 8.29C16.27 7.9 16.91 7.9 17.3 8.29C17.69 8.68 17.69 9.31 17.3 9.7L14.005 12.995L10.71 16.29C10.32 16.68 9.69 16.68 9.3 16.29L6.71 13.7C6.32 13.31 6.32 12.68 6.71 12.29C7.1 11.9 7.73 11.9 8.12 12.29Z" fill="#A0A0A0"/>
<path d="M10.0005 14.17L8.12047 12.29C7.73047 11.9 7.10047 11.9 6.71047 12.29C6.32047 12.68 6.32047 13.31 6.71047 13.7L9.30047 16.29C9.69047 16.68 10.3205 16.68 10.7105 16.29L14.0055 12.995L17.3005 9.7C17.6905 9.31 17.6905 8.68 17.3005 8.29C16.9105 7.9 16.2705 7.9 15.8805 8.29L12.9405 11.23L10.0005 14.17Z" fill="white"/>
</svg>
