<svg width="24" height="24" viewBox="0 0 24 24" fill="none" xmlns="http://www.w3.org/2000/svg">
<path d="M12 22C17.5228 22 22 17.5228 22 12C22 6.47715 17.5228 2 12 2C6.47715 2 2 6.47715 2 12C2 17.5228 6.47715 22 12 22Z" fill="#D18212"/>
<path d="M10.6735 13.8488C10.6735 14.2151 10.9705 14.5121 11.3369 14.5121H12.07C12.3786 14.5121 12.6286 14.262 12.6286 13.9535C12.681 12.976 13.5189 12.2603 14.3394 11.4747C15.1249 10.7066 15.8755 9.90365 15.8755 8.66424C15.8755 6.97097 14.706 5.60938 12.2097 5.60938C10.2617 5.60938 8.81013 6.60207 8.30852 8.25477C8.13639 8.82191 8.62288 9.32759 9.21556 9.32759C9.74616 9.32759 10.1621 8.90816 10.3918 8.42984C10.7159 7.75481 11.3241 7.35501 12.105 7.35501C13.1698 7.35501 13.6586 7.93108 13.6586 8.82135C13.6586 9.57198 13.0825 10.148 12.4366 10.7939C11.5987 11.6144 10.6735 12.4697 10.6735 13.8488ZM11.6336 18.3875C12.4017 18.3875 13.0301 17.7939 13.0301 17.0433C13.0301 16.2752 12.4017 15.6817 11.6336 15.6817C10.8481 15.6817 10.2022 16.2752 10.2022 17.0433C10.2022 17.7939 10.8481 18.3875 11.6336 18.3875Z" fill="white"/>
</svg>
