<svg width="240" height="240" viewBox="0 0 240 240" fill="none" xmlns="http://www.w3.org/2000/svg">
<path d="M179.46 40.6384C120.409 40.6384 133.394 79.5583 133.394 79.5583C125.504 77.0426 24.929 43.8084 10.6368 39.0929C10.5872 39.0771 10.5365 39.0681 10.4847 39.0681C10.2187 39.0681 10 39.2869 10 39.5532C10 39.6705 10.0417 39.7833 10.1183 39.8713C11.5836 41.5409 14.5142 44.8575 19.2144 50.0807C19.5683 50.4778 20.0192 50.7768 20.5219 50.9494L21.9646 51.4457L105.272 78.7912C105.746 78.9548 106.146 79.283 106.399 79.7162L110.907 87.3987C110.916 87.4145 110.922 87.4325 110.922 87.4506C110.922 87.507 110.876 87.5521 110.821 87.5521C110.808 87.5521 110.795 87.5498 110.783 87.5453L29.5165 60.8429C29.4883 60.8305 29.459 60.8237 29.4285 60.8237C29.3113 60.8237 29.2144 60.9207 29.2144 61.0381C29.2144 61.0967 29.2381 61.152 29.2798 61.1926C31.2072 63.3135 33.2248 65.5133 35.31 67.7695C35.8803 68.3866 36.5983 68.848 37.3952 69.112L114.627 94.4607C115.098 94.6051 115.5 94.9187 115.754 95.3406L120.263 103.046C120.272 103.061 120.277 103.079 120.277 103.097C120.277 103.154 120.231 103.199 120.176 103.199C120.163 103.199 120.15 103.197 120.139 103.192L46.1531 78.904C46.1339 78.8972 46.1136 78.8938 46.0933 78.8938C45.9941 78.8938 45.913 78.9751 45.913 79.0743C45.913 79.1195 45.9299 79.1635 45.9615 79.1973C48.2608 81.634 50.5794 84.0674 52.9159 86.4962C53.2045 86.794 53.5595 87.0185 53.9529 87.1505L123.599 110.006C124.236 110.216 124.776 110.649 125.121 111.224L129.539 118.693C129.547 118.707 129.551 118.724 129.551 118.74C129.551 118.796 129.505 118.841 129.45 118.841C129.442 118.841 129.434 118.841 129.426 118.839L64.6269 97.5743C64.5965 97.5652 64.5661 97.5607 64.5345 97.5607C64.3553 97.5607 64.2076 97.7085 64.2076 97.8879C64.2076 97.9736 64.2414 98.0548 64.3 98.1157C78.7275 112.544 91.6107 124.062 96.4687 124.514L50.0304 228.988C49.9944 229.076 49.9752 229.171 49.9752 229.267C49.9752 229.668 50.3066 230 50.7078 230C50.8713 230 51.0291 229.945 51.1576 229.845C72.0773 212.664 86.8203 166.908 109.093 154.758C141.306 137.16 153.716 126.849 161.651 109.239C171.007 88.4817 182.954 53.7809 184.713 52.4159C197.427 42.5788 220.195 20.5693 229.798 11.127C229.928 11.004 230 10.8325 230 10.6543C230 10.2944 229.706 10 229.346 10C229.223 10 229.103 10.035 228.998 10.1004C215.596 18.7192 181.331 40.6384 179.46 40.6384Z" fill="currentColor"/>
</svg>
