<svg width="217" height="217" viewBox="0 0 217 217" fill="none" xmlns="http://www.w3.org/2000/svg">
<path fill-rule="evenodd" clip-rule="evenodd" d="M77.9971 139.965C70.6419 139.979 64.6893 145.95 64.6986 153.306C64.7079 160.661 70.6756 166.617 78.0308 166.613C85.3861 166.608 91.3462 160.644 91.3462 153.289C91.3382 145.924 85.3622 139.959 77.9971 139.965Z" fill="#303030"/>
<path fill-rule="evenodd" clip-rule="evenodd" d="M77.9971 143.278C72.4705 143.288 67.9976 147.774 68.0042 153.301C68.0109 158.827 72.4946 163.303 78.0212 163.3C83.5477 163.296 88.0261 158.815 88.0261 153.289C88.0242 150.631 86.9663 148.083 85.0854 146.206C83.2045 144.328 80.6547 143.275 77.9971 143.278Z" fill="white"/>
<path fill-rule="evenodd" clip-rule="evenodd" d="M77.9971 146.153C74.058 146.161 70.8705 149.359 70.8759 153.298C70.8812 157.237 74.0773 160.427 78.0164 160.424C81.9554 160.422 85.1472 157.228 85.1472 153.289C85.1453 151.394 84.3909 149.578 83.05 148.24C81.7091 146.902 79.8915 146.151 77.9971 146.153Z" fill="#303030"/>
<path d="M77.9971 158.414C80.8334 158.414 83.1327 156.119 83.1327 153.289C83.1327 150.458 80.8334 148.164 77.9971 148.164C75.1607 148.164 72.8614 150.458 72.8614 153.289C72.8614 156.119 75.1607 158.414 77.9971 158.414Z" fill="#A1A1A1"/>
<path fill-rule="evenodd" clip-rule="evenodd" d="M77.9971 150.041C76.1994 150.041 74.7421 151.498 74.7421 153.296C74.7421 155.094 76.1994 156.551 77.9971 156.551C79.7948 156.551 81.2521 155.094 81.2521 153.296C81.2521 151.498 79.7948 150.041 77.9971 150.041Z" fill="#303030"/>
<path fill-rule="evenodd" clip-rule="evenodd" d="M152.034 139.965C144.679 139.979 138.726 145.95 138.735 153.306C138.745 160.661 144.712 166.617 152.068 166.613C159.423 166.608 165.383 160.644 165.383 153.289C165.375 145.924 159.399 139.959 152.034 139.965Z" fill="#303030"/>
<path fill-rule="evenodd" clip-rule="evenodd" d="M152.034 143.278C146.507 143.288 142.034 147.774 142.041 153.301C142.048 158.827 146.531 163.303 152.058 163.3C157.584 163.296 162.063 158.815 162.063 153.289C162.057 147.755 157.567 143.274 152.034 143.278Z" fill="white"/>
<path fill-rule="evenodd" clip-rule="evenodd" d="M152.034 146.153C148.095 146.161 144.907 149.359 144.913 153.298C144.918 157.237 148.114 160.427 152.053 160.424C155.992 160.422 159.184 157.228 159.184 153.289C159.183 151.394 158.429 149.577 157.088 148.239C155.747 146.901 153.929 146.15 152.034 146.153Z" fill="#303030"/>
<path d="M152.034 158.414C154.87 158.414 157.17 156.119 157.17 153.289C157.17 150.458 154.87 148.164 152.034 148.164C149.198 148.164 146.898 150.458 146.898 153.289C146.898 156.119 149.198 158.414 152.034 158.414Z" fill="#A1A1A1"/>
<path fill-rule="evenodd" clip-rule="evenodd" d="M152.034 150.041C150.236 150.041 148.779 151.498 148.779 153.296C148.779 155.094 150.236 156.551 152.034 156.551C153.832 156.551 155.289 155.094 155.289 153.296C155.289 151.498 153.832 150.041 152.034 150.041Z" fill="#303030"/>
<path fill-rule="evenodd" clip-rule="evenodd" d="M140.381 102.58H138.012C136.304 102.58 134.92 101.195 134.92 99.4873C134.92 97.7795 136.304 96.395 138.012 96.395H140.381C142.089 96.395 143.473 97.7795 143.473 99.4873C143.473 101.195 142.089 102.58 140.381 102.58Z" fill="#FEA000"/>
<path fill-rule="evenodd" clip-rule="evenodd" d="M130.605 106.301H137.524L134.323 94.8977L131.13 95.2811L128.186 97.0967L127.039 98.5072L126.898 101.252L130.605 106.301Z" fill="#F16622"/>
<path fill-rule="evenodd" clip-rule="evenodd" d="M138.489 94.8977V104.041H137.907L133.603 103.075L130.847 101.531C130.847 101.531 129.994 100.189 129.697 99.7658L129.665 99.7224C129.405 99.3543 129.266 98.9144 129.267 98.4638C129.267 97.8923 129.914 96.905 129.914 96.905L134.616 94.8977H138.482H138.489Z" fill="#F16622"/>
<path d="M138.489 94.8977H141.166V104.077H138.489V94.8977Z" fill="#303030"/>
<path d="M154.366 152.801L150.619 154.797L144.449 143.213L148.197 141.217L154.366 152.801Z" fill="#303030"/>
<path d="M59.4399 142.283L58.8323 144.663L95.3498 154.07L97.7187 144.92L59.4399 142.283Z" fill="#303030"/>
<path fill-rule="evenodd" clip-rule="evenodd" d="M156.84 132.869C154.209 131.552 151.275 130.957 148.338 131.144L148.388 131.122C148.522 131.049 148.66 130.982 148.801 130.923C152.804 129.158 154.66 124.493 152.58 120.645C151.768 119.137 150.78 117.731 149.636 116.457C143.94 110.113 134.464 102.066 134.464 102.066L133.871 103.212L130.301 105.563L133.918 115.542L137.6 124.862C138.609 127.415 137.741 129.563 136.251 131.853L127.05 145.412C125.48 147.828 123.582 149.126 120.695 149.101L111.618 149.043C108.677 149.018 105.878 148.511 104.355 146.001C104.218 145.773 104.099 145.542 103.994 145.303L97.744 144.916C97.744 144.916 91.5487 148.5 91.0062 150.088C90.178 152.497 89.6427 154.128 89.6427 154.128L114.862 155.965L129.057 155.64L131.477 151.538C135.319 151.447 139.017 150.055 141.965 147.589C143.972 145.893 146.274 144.582 148.757 143.723C151.28 142.867 153.979 142.663 156.602 143.13C159.756 143.675 162.988 143.59 166.11 142.88C166.11 142.88 163.372 136.146 156.84 132.869ZM143.097 132.034L143.701 131.021L133.893 103.238L139.242 113.806C139.242 113.806 145.39 130.58 148.023 131.166C146.972 131.24 145.927 131.391 144.898 131.618C144.305 131.748 143.705 131.882 143.086 132.034H143.097Z" fill="#F16622"/>
<path fill-rule="evenodd" clip-rule="evenodd" d="M150.334 128.931L129.263 157.477L91.48 157.198L89.6174 154.135H125.99L141.459 129.115L133.271 106.619L133.871 103.22C133.871 103.22 134.421 103.827 135.318 104.833C137.994 107.867 143.802 114.529 147.09 118.909L147.119 118.949C147.119 118.949 150.066 124.189 150.287 125.01C150.288 125.016 150.288 125.022 150.287 125.028L150.334 128.931Z" fill="#FEA000"/>
<path d="M84.8759 92.4818V120.359H50.8793V92.4818C50.8813 91.5099 51.6687 90.7225 52.6406 90.7205H83.0893C83.5602 90.7156 84.0136 90.8989 84.349 91.2295C84.6844 91.5601 84.874 92.0108 84.8759 92.4818Z" fill="#F16622"/>
<path fill-rule="evenodd" clip-rule="evenodd" d="M59.2772 136.79C59.2772 136.79 57.3785 128.815 67.8415 122.001H67.8451V120.359H88.1889L108.5 118.077L111.581 120.359V122.001V123.925L105.39 134.981L106.33 145.448L122.587 146.934L137.162 127.719C137.162 127.719 135.668 120.699 133.907 115.542L139.122 128.605L125.404 150.233L88.6084 151.643L88.9918 151.224L88.6518 138.16L87.5957 138.786L76.2032 137.979L59.2772 136.79Z" fill="#303030"/>
<path d="M140.97 115.983L144.027 122.323L146.822 123.162L147.191 122.681L142.772 115.878L140.97 115.983Z" fill="white"/>
<path fill-rule="evenodd" clip-rule="evenodd" d="M123.752 83.4293H124.79L125.162 90.1237H123.752V83.4293Z" fill="white"/>
<path fill-rule="evenodd" clip-rule="evenodd" d="M133.77 97.8815L129.9 89.1255L126.8 88.1671V84.9338L124.789 83.4293V90.1237H126.8V89.1798L129.195 89.9176L132.71 97.8815H132.518V98.9701H134.92V97.8815H133.77Z" fill="#303030"/>
<path fill-rule="evenodd" clip-rule="evenodd" d="M131.426 99.5885L128.146 102.67L127.166 102.608L125.961 101.328L125.965 100.344L129.245 97.263L130.225 97.3245L131.43 98.6048L131.426 99.5885Z" fill="#303030"/>
<path d="M59.2591 129.321C58.4598 129.321 57.8124 129.802 57.8124 130.406V136.016C57.8124 136.609 58.4634 137.101 59.2591 137.101H64.8505V129.321H59.2591Z" fill="#FEA000"/>
<path d="M111.581 114.287V120.377H88.149V114.287C88.149 113.314 88.9376 112.525 89.9104 112.525H109.802C110.272 112.521 110.725 112.704 111.059 113.035C111.393 113.366 111.581 113.816 111.581 114.287Z" fill="#F16622"/>
<path fill-rule="evenodd" clip-rule="evenodd" d="M55.2012 149.007L98.7785 154.009C98.7785 154.009 103.513 146.106 99.5018 136.095C95.3318 125.679 80.6445 120.366 69.1218 125.856C57.5991 131.346 55.2012 149.007 55.2012 149.007Z" fill="#F16622"/>
<path d="M73.1435 99.3354C67.6136 99.3354 68.8288 102.974 68.8288 102.974C68.1055 102.739 58.6768 99.6319 57.3387 99.1907C57.3189 99.1808 57.2948 99.1873 57.2828 99.2058C57.2707 99.2244 57.2745 99.249 57.2916 99.263L58.1416 100.218C58.1764 100.254 58.2182 100.282 58.2645 100.301L58.3983 100.348L66.185 102.901C66.2301 102.919 66.2682 102.951 66.2935 102.992L66.7167 103.715C66.7167 103.715 66.7167 103.733 66.7167 103.715L59.1217 101.22C59.1127 101.214 59.1005 101.216 59.0945 101.225C59.0886 101.234 59.091 101.246 59.1 101.252L59.6642 101.867C59.7169 101.925 59.7844 101.968 59.8595 101.99L67.0928 104.363C67.136 104.376 67.1722 104.406 67.1941 104.446L67.6208 105.169L60.6913 102.898C60.9035 103.124 61.1205 103.352 61.3423 103.581C61.3682 103.609 61.4005 103.63 61.4363 103.643L67.9463 105.78C68.0055 105.799 68.0557 105.839 68.0874 105.892L68.5033 106.59C68.5033 106.59 68.5033 106.608 68.5033 106.59L62.4382 104.601C62.4252 104.599 62.4121 104.605 62.4049 104.616C62.3978 104.627 62.3981 104.641 62.4056 104.652C63.7582 106.001 64.9626 107.075 65.4183 107.122L61.0783 116.887C61.0646 116.916 61.0727 116.95 61.0977 116.97C61.1227 116.99 61.1582 116.99 61.1832 116.97C63.1398 115.361 64.5214 111.082 66.6082 109.947C69.6209 108.301 70.7854 107.335 71.5268 105.69C72.4021 103.748 73.5196 100.504 73.6968 100.377C74.8867 99.4547 77.0169 97.3968 77.9175 96.5144C77.9388 96.4928 77.9412 96.4589 77.9232 96.4345C77.9051 96.4102 77.872 96.4026 77.8452 96.4167C76.5251 97.2883 73.3171 99.3354 73.1435 99.3354Z" fill="white"/>
</svg>
