<svg width="217" height="217" viewBox="0 0 217 217" fill="none" xmlns="http://www.w3.org/2000/svg">
<path d="M22.4592 123.341L72.3358 126.96L70.3812 153.899L20.5046 150.28L22.4592 123.341Z" fill="#303030"/>
<path d="M153.321 124.142H201.372V153.795H153.321V124.142Z" fill="#303030"/>
<path d="M208.74 130.923L209.199 124.269C209.199 124.269 194.389 117.614 182.515 115.657C170.642 113.701 152.764 111.874 152.764 111.874C152.764 111.874 142.095 104.659 138.348 102.511C133.842 99.9321 119.755 92.9483 119.755 92.9483C119.755 92.9483 104.225 89.8163 71.7366 90.3407C39.2481 90.8651 22.2859 95.4366 22.2859 95.4366L23.9821 97.5234L10.0544 111.911L11.1394 116.214L9.37804 135.744L6.70532 138.547L6.90062 144.356L10.2931 149.444L19.9459 152.019L27.031 152.171C27.3472 149.01 27.8875 145.875 28.6476 142.79C29.682 139.303 30.9732 135.856 33.9858 133.386C37.0419 131.31 40.8937 130.012 45.4181 129.77C45.9389 129.744 46.4742 129.733 47.0275 129.73C47.5809 129.726 48.1125 129.73 48.6333 129.77C53.1578 129.997 57.0095 131.296 60.0656 133.386C63.0783 135.86 64.3695 139.307 65.4038 142.79C65.9391 144.598 67.2809 151.799 67.1217 154.804L157.083 155.314H157.509L157.477 155.227C157.459 155.184 157.444 155.137 157.43 155.09C157.162 152.28 158.573 144.656 159.126 142.793C160.16 139.307 161.452 135.86 164.464 133.39C167.52 131.314 171.372 130.016 175.9 129.773C176.417 129.748 176.953 129.737 177.506 129.733C178.059 129.73 178.591 129.733 179.112 129.773C183.636 130.001 187.492 131.299 190.548 133.39C193.557 135.864 194.848 139.31 195.886 142.793C196.439 144.656 197.85 152.28 197.582 155.09C197.571 155.118 197.561 155.147 197.553 155.177L201.705 155.318L207.579 153.231L209.796 150.359L210.316 134.768L208.74 130.923Z" fill="#F16622"/>
<path d="M206.457 140.092H208.371L208.154 147.726L204.967 149.976H202.913L203.13 142.735L206.457 140.092Z" fill="#303030"/>
<path d="M196.573 123.65L191.875 125.903L201.173 130.504L208.765 130.569L209.043 126.54L202.642 123.65H196.573Z" fill="#FEA000"/>
<path d="M18.2714 121.205L22.5789 113.672H12.1086L10.7524 114.703L11.1285 116.214L10.416 124.142L18.2714 121.205Z" fill="#FEA000"/>
<path d="M29.266 99.0894L23.9459 97.5596L11.3997 110.514L12.8897 110.392L29.266 99.0894Z" fill="#3F3F3F"/>
<path d="M177.495 166.613C186.683 166.613 194.132 159.164 194.132 149.976C194.132 140.788 186.683 133.339 177.495 133.339C168.307 133.339 160.858 140.788 160.858 149.976C160.858 159.164 168.307 166.613 177.495 166.613Z" fill="#303030"/>
<path fill-rule="evenodd" clip-rule="evenodd" d="M178.299 138.576C178.35 138.581 178.401 138.587 178.454 138.587V138.583C184.529 139.102 189.135 144.287 188.931 150.382C188.728 156.476 183.787 161.343 177.69 161.455C171.594 161.567 166.477 156.884 166.05 150.802C165.624 144.719 170.036 139.368 176.088 138.627H176.146L176.544 138.587H176.66C176.79 138.565 176.916 138.565 177.047 138.565H177.065H177.495H177.784H177.958H178.175C178.217 138.567 178.258 138.571 178.299 138.576ZM177.094 152.761L175.973 160.063L175.969 160.077C177.049 160.238 178.148 160.225 179.224 160.041L177.987 152.761C178.182 152.726 178.374 152.671 178.558 152.598L180.558 157.607L182.056 158.287L182.417 158.927C182.609 158.822 182.79 158.714 182.971 158.598L182.584 157.983L182.71 156.349L179.303 152.164C179.457 152.037 179.597 151.895 179.723 151.741L185.47 156.349C186.711 154.793 187.465 152.906 187.64 150.924L180.331 150.24C180.351 150.04 180.351 149.839 180.331 149.64L185.672 149.007L186.718 147.73L187.394 147.567C187.343 147.357 187.289 147.151 187.228 146.949L186.559 147.159L185.011 146.609L180.114 148.804C180.033 148.621 179.934 148.446 179.817 148.283L185.709 143.943C184.542 142.346 182.936 141.122 181.086 140.421L178.555 147.263C178.366 147.191 178.169 147.138 177.969 147.108L178.728 141.828L177.777 140.493V139.788H177.517H177.155L177.184 140.511L176.251 141.864L177.101 147.119C176.9 147.151 176.702 147.203 176.511 147.274L173.86 140.479C172.003 141.199 170.396 142.448 169.238 144.07L175.202 148.298C175.084 148.463 174.986 148.642 174.909 148.829L170.016 146.732L168.475 147.307L167.752 147.097C167.69 147.303 167.636 147.509 167.589 147.719L168.312 147.886L169.379 149.133L174.685 149.676C174.661 149.878 174.661 150.082 174.685 150.283L167.372 151.086C167.587 153.073 168.382 154.952 169.658 156.49L175.336 151.788C175.465 151.941 175.611 152.079 175.77 152.2L172.432 156.432L172.587 158.066L172.197 158.714C172.378 158.822 172.566 158.927 172.757 159.028L173.119 158.363L174.598 157.64L176.515 152.612C176.702 152.682 176.896 152.732 177.094 152.761Z" fill="#A1A1A1"/>
<path d="M47.0168 166.613C56.205 166.613 63.6535 159.164 63.6535 149.976C63.6535 140.788 56.205 133.339 47.0168 133.339C37.8286 133.339 30.3801 140.788 30.3801 149.976C30.3801 159.164 37.8286 166.613 47.0168 166.613Z" fill="#303030"/>
<path fill-rule="evenodd" clip-rule="evenodd" d="M47.9715 138.587C47.9212 138.587 47.8697 138.581 47.8183 138.576C47.7775 138.571 47.7367 138.567 47.6967 138.565H47.476H47.3061H47.0167H46.5863H46.5683C46.4381 138.565 46.3079 138.565 46.1813 138.587H46.0655L45.6677 138.627H45.6062C39.5517 139.368 35.138 144.721 35.5649 150.805C35.9918 156.89 41.1096 161.574 47.2083 161.463C53.3069 161.351 58.2495 156.482 58.4529 150.385C58.6562 144.289 54.0492 139.102 47.9715 138.583V138.587ZM51.5882 158.273L50.0945 157.593L48.127 152.663C48.4276 152.539 48.7052 152.366 48.948 152.15L52.203 156.338L52.033 157.972L52.4272 158.623C52.2681 158.725 52.1054 158.822 51.939 158.913L51.5882 158.273ZM56.9228 147.567C56.8721 147.357 56.8179 147.151 56.7528 146.949L56.0873 147.169L54.543 146.62L49.6786 148.79C49.7969 149.056 49.8749 149.339 49.9101 149.629L55.194 149.007L56.2428 147.73L56.9228 147.567ZM49.3603 151.697C49.6741 151.275 49.8667 150.775 49.9173 150.251L57.1687 150.931C56.9893 152.936 56.2162 154.842 54.9481 156.406L49.3603 151.697ZM49.3603 148.283L55.2302 143.943C54.0487 142.354 52.4319 141.142 50.5755 140.453L48.0439 147.278C48.5713 147.478 49.0289 147.827 49.3603 148.283ZM47.0167 139.795H47.2771L47.259 140.5L48.2138 141.835L47.4543 147.101C47.3096 147.078 47.1633 147.066 47.0167 147.065C46.8701 147.065 46.7238 147.078 46.5791 147.101L45.7328 141.857L46.6623 140.504L46.637 139.781L47.0167 139.795ZM42.2753 159.014L42.6369 158.349L44.1234 157.64L45.9751 152.696C45.6981 152.592 45.4383 152.447 45.2048 152.265L41.9498 156.417L42.1089 158.052L41.7147 158.699C41.8096 158.751 41.8988 158.802 41.9865 158.852C42.0826 158.907 42.177 158.961 42.2753 159.014ZM37.9751 147.307L39.5121 146.732L44.3729 148.815C44.2524 149.087 44.1755 149.376 44.1451 149.672L38.8901 149.133L37.8268 147.886L37.1034 147.719C37.1505 147.509 37.2047 147.303 37.2626 147.097L37.9751 147.307ZM44.7816 151.839C44.4149 151.398 44.1859 150.86 44.1234 150.291L36.8901 151.09C37.1038 153.076 37.8975 154.955 39.1722 156.493L44.7816 151.839ZM43.3386 140.479L43.339 140.48C41.4812 141.2 39.8744 142.448 38.7165 144.07L44.655 148.28C44.9895 147.819 45.4507 147.466 45.9824 147.263L43.339 140.48L43.3422 140.479H43.3386ZM46.5936 152.848L45.5086 160.063H45.4941C45.9969 160.139 46.5047 160.176 47.0131 160.175C47.5949 160.175 48.1757 160.126 48.7491 160.027L47.5231 152.833C47.3551 152.866 47.1843 152.883 47.0131 152.884C46.8725 152.883 46.7323 152.871 46.5936 152.848Z" fill="#A1A1A1"/>
<path d="M59.0854 118.298L52.7092 117.968L52.8467 115.364L59.2228 115.69L59.0854 118.298Z" fill="#303030"/>
<path d="M108.07 120.941L101.693 120.616L101.831 118.008L108.207 118.337L108.07 120.941Z" fill="#303030"/>
<path d="M145.752 107.202C146.388 107.616 147.021 108.035 147.65 108.457L145.064 107.997L140.938 107.274L139.99 107.108C143.498 109.683 147.061 112.352 147.061 112.352L152.681 111.82C152.124 111.444 149.036 109.361 145.752 107.202Z" fill="#3F3F3F"/>
<path d="M92.5866 98.735L82.9409 97.0352L73.241 95.3245L67.9933 94.4131C69.2193 94.3588 67.4544 94.4131 65.3459 94.5324C64.4236 94.5758 63.5014 94.6265 62.5791 94.6771L61.2699 94.7531C61.1614 94.7531 60.948 94.7277 60.872 94.7965C60.8112 94.885 60.7648 94.9827 60.7346 95.0858L60.4489 95.6825L59.5303 97.5958L56.8467 103.198L54.145 108.862L53.1939 110.851L52.8901 111.48C52.8204 111.585 52.7668 111.699 52.7309 111.82L52.7092 111.864L53.8232 111.921L56.8539 112.084L61.3169 112.319L66.76 112.609L72.7456 112.927L78.7854 113.249L84.3985 113.545L89.1616 113.798L92.5721 113.979L93.6354 114.037C93.8197 114.065 94.0062 114.074 94.1924 114.066C94.2153 114.064 94.2382 114.064 94.2611 114.066L94.0694 112.298L93.6065 108.073L93.0495 102.967L92.5649 98.5542C92.4853 97.8308 92.4094 97.1075 92.3298 96.4023V96.3697L92.5866 98.735Z" fill="#3F3F3F"/>
<path d="M50.7962 95.5668L34.6152 105.874L40.8142 111.223L49.9752 111.712L57.997 94.9664C53.4255 95.2847 50.7962 95.5668 50.7962 95.5668Z" fill="#3F3F3F"/>
<path d="M98.3445 99.7621L101.694 114.457L135.412 116.247L142.978 115.401C142.978 115.401 137.072 110.037 131.361 105.581L98.3445 99.7621Z" fill="#3F3F3F"/>
<path d="M92.3264 96.3661L92.2143 95.3534L92.1347 94.6301C92.1347 94.5433 92.1347 94.2684 92.0877 94.1925C92.0407 94.1165 91.8635 94.1708 91.7911 94.1708L91.0063 94.1491L89.5596 94.1201C88.5723 94.1201 87.5813 94.0912 86.594 94.084C82.6639 94.055 78.7301 94.0924 74.7928 94.1961C72.5288 94.2491 70.2635 94.3251 67.9971 94.4239L70.4492 94.8543L76.3118 95.8778L83.4041 97.1292L89.5524 98.2142L91.5741 98.5759L92.1962 98.6844C92.3022 98.7205 92.4133 98.7401 92.5253 98.7422C92.5396 98.7387 92.5545 98.7387 92.5687 98.7422L92.3264 96.3661Z" fill="#575757"/>
<path d="M131.347 105.574C127.332 102.449 123.007 99.7875 118.594 97.2558L117.053 96.3842L116.33 95.9791C116.24 95.9167 116.143 95.8646 116.041 95.8236C115.837 95.7804 115.63 95.7538 115.422 95.744C114.891 95.6789 114.355 95.6211 113.82 95.5632C111.213 95.2775 108.601 95.046 105.986 94.8399C103.033 94.6204 100.077 94.448 97.1184 94.3227L98.0696 98.4855L98.2866 99.4403C98.2866 99.5017 98.3083 99.7007 98.3589 99.7441C98.4096 99.7875 98.6446 99.7947 98.7206 99.8055L101.068 100.221L105.075 100.927L110.167 101.824L115.733 102.825L121.223 103.798L126.055 104.652L129.603 105.278C130.16 105.375 130.732 105.516 131.296 105.574C131.31 105.574 131.379 105.607 131.347 105.574Z" fill="#575757"/>
<path d="M145.752 107.202C142.605 105.104 139.422 103.053 136.084 101.27C132.243 99.216 128.352 97.2558 124.457 95.3028L122.92 94.5324C122.81 94.4596 122.687 94.4081 122.558 94.3805C122.463 94.3818 122.369 94.3902 122.276 94.4058L120.829 94.5397C122.695 95.6825 124.557 96.8338 126.413 97.9936C129.035 99.6247 131.672 101.249 134.229 102.974C135.364 103.74 136.475 104.547 137.582 105.35C138.225 105.813 138.862 106.279 139.502 106.75C139.681 106.917 139.896 107.041 140.131 107.111L143.987 107.791L146.287 108.196L147.108 108.341C147.263 108.381 147.422 108.409 147.582 108.424H147.647C147.017 108.026 146.386 107.619 145.752 107.202Z" fill="#575757"/>
<path d="M71.0747 154.84C73.4689 151.452 75.5485 146.58 78.3731 145.039C83.6101 142.182 85.6282 140.507 86.9157 137.647C88.4383 134.276 90.3805 128.641 90.6662 128.421C92.7313 126.822 96.4311 123.245 98.0008 121.712C98.0467 121.676 98.0548 121.609 98.0189 121.563C97.9829 121.517 97.9165 121.509 97.8706 121.545C95.7006 122.945 90.1201 126.507 89.8163 126.507C80.2176 126.507 82.3298 132.826 82.3298 132.826C81.0495 132.421 64.6985 127.021 62.373 126.254C62.3397 126.245 62.3043 126.258 62.2853 126.287C62.2663 126.316 62.2681 126.354 62.2898 126.381C62.5285 126.652 63.0131 127.191 63.769 128.041C63.8278 128.104 63.901 128.153 63.9824 128.182L64.2139 128.261L77.7583 132.703C77.8375 132.729 77.9044 132.783 77.9464 132.855L78.6697 134.099C78.6729 134.105 78.672 134.113 78.6672 134.119C78.6625 134.124 78.6549 134.126 78.648 134.124L65.4255 129.784C65.4099 129.778 65.3923 129.784 65.3829 129.797C65.3735 129.811 65.3746 129.83 65.3857 129.842L66.3658 130.927C66.4579 131.028 66.5752 131.103 66.7058 131.144L79.2773 135.263C79.3535 135.285 79.4183 135.336 79.4581 135.404L80.1815 136.656L68.1488 132.732C68.136 132.725 68.1205 132.729 68.1124 132.741C68.1043 132.753 68.1059 132.769 68.1163 132.779C68.4779 133.173 68.8685 133.571 69.2483 133.965C69.2953 134.012 69.3521 134.048 69.4146 134.07L80.7348 137.784C80.8394 137.818 80.9281 137.889 80.9844 137.983L81.7077 139.195C81.7077 139.195 81.7077 139.224 81.686 139.216L71.1543 135.762C71.1304 135.755 71.1045 135.765 71.0916 135.786C71.0787 135.808 71.0822 135.835 71.1 135.853C73.4472 138.196 75.5413 140.059 76.3297 140.139L69.8016 154.833L71.0747 154.84Z" fill="white"/>
</svg>
