<svg width="217" height="217" viewBox="0 0 217 217" fill="none" xmlns="http://www.w3.org/2000/svg">
<path d="M153.857 135.755H195.398V156.909H153.857V135.755Z" fill="#303030"/>
<rect x="32.6617" y="132.051" width="41.541" height="21.1539" transform="rotate(4.59 32.6617 132.051)" fill="#303030"/>
<path d="M202.533 132.811L196.711 127.795C196.711 127.795 185.369 122.782 166.07 120.71C161.282 120.196 147.643 109.368 130.96 103.661C118.24 99.3209 96.905 98.4457 79.6028 99.6645C56.9806 101.263 44.3403 111.122 34.9153 114.464C29.2444 116.478 20.275 117.111 20.275 117.111L17.02 121.035L15.0562 133.028L12.0037 138.265L12.3328 147.531L15.7108 152.233L35.4433 154.323C35.3298 153.548 35.273 152.766 35.2734 151.983C35.2735 145.477 39.1305 139.589 45.0955 136.99C51.0605 134.391 57.9987 135.576 62.7639 140.006C67.5291 144.436 69.2148 151.27 67.0566 157.408L155.9 158.385L158.558 158.229C155.722 151.32 157.926 143.368 163.912 138.904C169.899 134.439 178.149 134.596 183.962 139.285C189.775 143.974 191.673 152.005 188.577 158.801L193.231 159.267C196.512 158.974 204.57 153.744 204.57 153.744L205.007 139.495L202.533 132.811Z" fill="#F16622"/>
<path d="M51.6243 166.613C59.6859 166.613 66.2211 160.077 66.2211 152.016C66.2211 143.954 59.6859 137.419 51.6243 137.419C43.5626 137.419 37.0274 143.954 37.0274 152.016C37.0274 160.077 43.5626 166.613 51.6243 166.613Z" fill="#303030"/>
<path fill-rule="evenodd" clip-rule="evenodd" d="M52.2247 142.005L52.4597 142.023L52.4923 142.016C57.8144 142.458 61.8579 146.991 61.6922 152.329C61.5265 157.667 57.2095 161.94 51.8702 162.051C46.5308 162.163 42.0394 158.073 41.6511 152.747C41.2628 147.421 45.1137 142.723 50.4127 142.059H50.4778L50.8178 142.023H50.9299L51.2626 142.005H51.6243H51.8775H52.0294H52.2247ZM51.2699 154.461L50.2897 160.866C50.7334 160.939 51.1819 160.979 51.6315 160.985C52.142 160.985 52.6515 160.94 53.1541 160.851L52.0691 154.468C52.2403 154.436 52.4076 154.386 52.5682 154.32L54.3259 158.717L55.6352 159.314L55.9426 159.875C56.1089 159.784 56.268 159.687 56.4271 159.589L56.4272 159.589L56.0873 159.05L56.203 157.603L53.212 153.933C53.3435 153.823 53.4646 153.702 53.5737 153.571L58.6153 157.614C59.7055 156.251 60.3708 154.597 60.5285 152.858L54.1126 152.258C54.1307 152.084 54.1307 151.908 54.1126 151.734L58.7961 151.177L59.7256 150.048L60.3224 149.904C60.318 149.887 60.3136 149.87 60.3092 149.853C60.2665 149.688 60.2233 149.522 60.1741 149.361L59.5846 149.546L58.2283 149.061L53.9209 150.989C53.8511 150.828 53.7638 150.675 53.6605 150.533L58.8323 146.735C57.8002 145.33 56.3797 144.256 54.7455 143.647L52.5212 149.65C52.3558 149.585 52.1835 149.539 52.0077 149.513L52.6876 144.884L51.8521 143.712V143.093H51.6243H51.2916L51.3169 143.712L50.4995 144.898L51.2409 149.509C51.0644 149.538 50.8911 149.584 50.7237 149.647L48.4018 143.687C46.7714 144.317 45.3618 145.413 44.3476 146.837L49.5809 150.555C49.4778 150.701 49.3917 150.859 49.3241 151.025L45.0311 149.184L43.6821 149.687L43.0528 149.502C43.0022 149.687 42.9551 149.864 42.9117 150.048L43.5483 150.193L44.485 151.278L49.1433 151.748C49.1234 151.925 49.1234 152.103 49.1433 152.28L42.7381 152.985C42.9288 154.731 43.6323 156.38 44.7599 157.726L49.74 153.596C49.8543 153.73 49.9829 153.852 50.1234 153.958L47.2083 157.658L47.3458 159.104L46.9841 159.669C47.1432 159.766 47.3096 159.857 47.476 159.943L47.7834 159.361L49.0854 158.743L50.7635 154.33C50.9271 154.392 51.0969 154.436 51.2699 154.461Z" fill="#A1A1A1"/>
<path d="M173.687 166.613C181.748 166.613 188.284 160.077 188.284 152.016C188.284 143.954 181.748 137.419 173.687 137.419C165.625 137.419 159.09 143.954 159.09 152.016C159.09 160.077 165.625 166.613 173.687 166.613Z" fill="#303030"/>
<path d="M166.54 151.278L171.195 151.755C171.219 151.5 171.282 151.251 171.379 151.014L167.09 149.173L165.741 149.676L164.092 149.191C164.034 149.394 163.98 149.6 163.933 149.802L165.611 150.182L166.54 151.278Z" fill="#303030"/>
<path d="M172.153 150.012C172.348 149.861 172.564 149.739 172.794 149.65L170.074 142.667C168.246 143.379 166.666 144.611 165.531 146.211L171.647 150.551C171.788 150.347 171.959 150.166 172.153 150.012Z" fill="#303030"/>
<path d="M175.662 150.453L175.723 150.544L181.763 146.113C181.698 146.027 181.636 145.936 181.568 145.849C180.434 144.393 178.917 143.281 177.188 142.638L174.584 149.669C175.008 149.828 175.38 150.099 175.662 150.453Z" fill="#303030"/>
<path d="M171.712 153.524C171.433 153.166 171.258 152.738 171.206 152.287L163.752 153.108C163.957 154.942 164.668 156.682 165.806 158.135L166.012 158.388L171.799 153.603C171.768 153.579 171.739 153.553 171.712 153.524Z" fill="#303030"/>
<path d="M172.558 144.898L173.303 149.509C173.556 149.471 173.814 149.471 174.066 149.509L174.736 144.876L173.9 143.705L173.94 141.987C173.73 141.987 173.52 141.987 173.307 141.987L173.376 143.705L172.558 144.898Z" fill="#303030"/>
<path d="M171.144 158.743L172.822 154.33C172.586 154.244 172.364 154.122 172.164 153.969L169.26 157.687L169.397 159.133L168.522 160.58C168.703 160.689 168.884 160.79 169.072 160.887L169.853 159.401L171.144 158.743Z" fill="#303030"/>
<path d="M175.633 153.553L181.481 158.254C182.707 156.738 183.462 154.894 183.651 152.952L176.19 152.254C176.133 152.732 175.94 153.183 175.633 153.553H175.633Z" fill="#303030"/>
<path d="M181.636 149.546L180.28 149.061L175.98 150.989C176.081 151.218 176.146 151.462 176.171 151.712L180.873 151.155L181.792 150.045L183.423 149.647C183.372 149.444 183.318 149.242 183.256 149.039L181.636 149.546Z" fill="#303030"/>
<path d="M173.332 154.461L172.197 161.868C173.252 162.028 174.327 162.018 175.379 161.839L174.121 154.45C173.86 154.493 173.594 154.497 173.332 154.461Z" fill="#303030"/>
<path d="M178.255 157.596L175.267 153.925C175.253 153.935 175.24 153.946 175.228 153.958C175.043 154.105 174.84 154.226 174.624 154.32L176.381 158.714L177.69 159.311L178.486 160.757C178.671 160.656 178.848 160.551 179.029 160.439L178.143 159.036L178.255 157.596Z" fill="#303030"/>
<path d="M173.687 154.565C175.095 154.565 176.237 153.424 176.237 152.016C176.237 150.608 175.095 149.466 173.687 149.466C172.279 149.466 171.137 150.608 171.137 152.016C171.137 153.424 172.279 154.565 173.687 154.565Z" fill="#303030"/>
<path fill-rule="evenodd" clip-rule="evenodd" d="M174.284 142.005L174.526 142.023V142.016C179.842 142.457 183.882 146.985 183.717 152.317C183.552 157.649 179.24 161.918 173.906 162.03C168.572 162.141 164.085 158.056 163.697 152.736C163.31 147.415 167.156 142.722 172.45 142.059H172.504L172.866 142.023H172.967L173.307 142.005H173.687H173.94H174.092H174.284ZM173.336 154.461L172.356 160.866H172.352C172.788 160.938 173.228 160.978 173.669 160.985C174.179 160.985 174.689 160.94 175.191 160.851L174.106 154.468C174.279 154.436 174.447 154.386 174.609 154.32L176.367 158.717L177.676 159.314L177.983 159.875C178.15 159.784 178.309 159.687 178.468 159.585L178.128 159.05L178.24 157.603L175.253 153.933C175.385 153.825 175.506 153.703 175.615 153.571L180.66 157.614C181.748 156.25 182.412 154.596 182.569 152.858L176.157 152.258C176.177 152.084 176.177 151.908 176.157 151.734L180.859 151.177L181.792 150.055L182.385 149.911C182.342 149.73 182.291 149.546 182.237 149.368L181.651 149.553L180.294 149.068L175.994 150.996C175.924 150.836 175.838 150.683 175.737 150.54L180.906 146.743C179.875 145.337 178.456 144.263 176.822 143.654L174.598 149.658C174.432 149.592 174.258 149.546 174.081 149.52L174.75 144.887L173.915 143.715V143.097H173.687H173.35L173.376 143.715L172.558 144.902L173.303 149.513C173.127 149.541 172.954 149.587 172.786 149.65L170.464 143.69C168.834 144.322 167.424 145.415 166.406 146.837L171.651 150.547C171.546 150.694 171.459 150.852 171.39 151.018L167.097 149.177L165.748 149.679L165.123 149.495C165.068 149.679 165.021 149.857 164.982 150.041L165.618 150.186L166.551 151.271L171.206 151.748C171.188 151.925 171.188 152.103 171.206 152.28L164.797 152.985C164.985 154.729 165.685 156.379 166.808 157.726L171.788 153.596C171.895 153.729 172.017 153.85 172.15 153.958L169.256 157.658L169.394 159.104L169.05 159.669C169.209 159.766 169.376 159.857 169.542 159.947L169.542 159.947L169.85 159.361L171.148 158.743L172.826 154.33C172.991 154.391 173.162 154.435 173.336 154.461Z" fill="#A1A1A1"/>
<path d="M189.947 135.574L204.168 137.267L202.526 132.811L199.405 130.12L181.152 127.65L189.947 135.574Z" fill="#FEA000"/>
<path d="M198.164 142.989L204.721 148.479L204.888 142.989H198.164Z" fill="#303030"/>
<path d="M26.9767 121.401H16.9622L15.3419 131.285H23.1973L26.9767 121.401Z" fill="#FEA000"/>
<path d="M75.3026 127.827L68.1995 127.462L68.355 124.558L75.4581 124.923L75.3026 127.827Z" fill="#303030"/>
<path d="M112.084 129.788L104.981 129.419L105.136 126.515L112.24 126.88L112.084 129.788Z" fill="#303030"/>
<path d="M61.4327 116.019L62.0945 118.84L99.5957 120.974V109.563L68.7094 104.117L61.4327 116.019Z" fill="#3F3F3F"/>
<path d="M153.282 119.032L105.654 110.634V121.317L156.37 124.211L157.893 122.28C157.893 122.28 152.96 118.818 153.282 119.032Z" fill="#3F3F3F"/>
<path d="M68.7094 104.135L68.7544 104.07L68.7094 104.135Z" fill="#575757"/>
<path d="M79.6173 102.572C75.9631 102.829 72.33 103.328 68.742 104.066L68.7094 104.12L99.5957 109.563V102.142C92.8073 101.961 85.9428 102.127 79.6173 102.572Z" fill="#575757"/>
<path d="M152.262 118.37C149.402 116.504 146.467 114.76 143.455 113.14C140.471 111.531 137.423 110.044 134.305 108.717C131.419 107.463 128.454 106.398 125.43 105.531C122.573 104.757 119.675 104.144 116.75 103.693C113.495 103.169 110.193 102.797 106.894 102.525L105.628 102.428V110.504C105.628 110.525 105.628 110.616 105.628 110.634C105.628 110.652 106.03 110.703 106.106 110.717L109.415 111.299L115.162 112.312L122.493 113.607L130.558 115.028L138.515 116.431L145.499 117.661L150.663 118.572L153.159 119.014L153.264 119.032C152.943 118.807 152.609 118.587 152.262 118.37Z" fill="#575757"/>
<path d="M72.6299 157.473C74.138 154.985 75.686 152.652 77.5268 151.647C83.1254 148.591 85.281 146.8 86.6589 143.744C88.2864 140.128 90.3624 134.117 90.6662 133.882C92.876 132.171 96.8326 128.352 98.5071 126.714C98.5475 126.672 98.5511 126.607 98.5155 126.562C98.4799 126.516 98.4161 126.504 98.3661 126.533C96.0369 128.03 90.0839 131.835 89.762 131.835C79.4979 131.835 81.7583 138.591 81.7583 138.591C80.3876 138.157 62.9119 132.388 60.42 131.567C60.3841 131.554 60.3438 131.567 60.3224 131.599C60.301 131.63 60.304 131.673 60.3296 131.701C60.5864 131.994 61.0963 132.569 61.9137 133.473C61.9733 133.543 62.0508 133.596 62.1379 133.625L62.3875 133.712L76.8541 138.457C76.9395 138.484 77.0117 138.542 77.0567 138.62L77.8487 139.951C77.8487 139.951 77.8487 139.983 77.827 139.976L63.6931 135.343C63.6761 135.332 63.6534 135.337 63.6425 135.354C63.6315 135.371 63.6363 135.393 63.6533 135.404L64.7021 136.544C64.8008 136.651 64.9253 136.732 65.0638 136.779L78.4816 141.177C78.5618 141.204 78.6296 141.259 78.6733 141.332L79.4654 142.67C79.4686 142.677 79.4677 142.685 79.4629 142.69C79.4582 142.696 79.4506 142.698 79.4437 142.696L66.5828 138.479C66.5698 138.476 66.5567 138.482 66.5496 138.493C66.5425 138.504 66.5427 138.518 66.5503 138.529C66.9505 138.951 67.3532 139.373 67.7582 139.795C67.8084 139.847 67.8704 139.887 67.9391 139.911L80.0404 143.889C80.1506 143.925 80.2441 144 80.3044 144.099L81.0856 145.39C81.0902 145.393 81.0929 145.399 81.0929 145.404C81.0929 145.41 81.0902 145.416 81.0856 145.419L69.8016 141.719C69.7771 141.713 69.7514 141.723 69.7382 141.745C69.725 141.766 69.7272 141.794 69.7438 141.813C72.2501 144.316 74.4888 146.312 75.3351 146.395L70.4165 157.452L72.6299 157.473Z" fill="white"/>
</svg>
