<svg width="217" height="217" viewBox="0 0 217 217" fill="none" xmlns="http://www.w3.org/2000/svg">
<path fill-rule="evenodd" clip-rule="evenodd" d="M184.884 128.048H148.862L143.267 132.37L53.0456 132.29V135.907H10.85V140.728H16.275V146.153H13.8916V151.607H34.9334V146.131H33.154V140.706H53.0456V150.352H184.884C193.032 150.352 198.772 147.35 198.772 139.202C198.772 131.054 193.032 128.048 184.884 128.048ZM19.8917 140.706V146.131H18.0833V140.706H19.8917ZM29.5373 146.131H31.3456V140.706H29.5373V146.131Z" fill="#303030"/>
<path d="M157.705 79.8271C157.792 79.8271 157.871 79.8488 157.954 79.8524L157.976 79.8271H199.64L214.685 115.885L214.758 148.544H188.067C188.067 134.681 175.336 134.077 175.336 134.077H152.504V79.8271L157.705 79.8271Z" fill="#F16622"/>
<path d="M160.942 125.639H167.571V129.256H160.942V125.639Z" fill="white"/>
<path d="M195.904 142.515H207.958V146.735H195.904V142.515Z" fill="white"/>
<path d="M212.779 125.639H215.192V144.927H212.779V125.639Z" fill="#303030"/>
<path d="M185.654 148.403H217V153.853H185.654V148.403Z" fill="#303030"/>
<path d="M199.749 79.8271C199.749 79.8271 195.083 56.7817 152.768 56.8721V75.2845L160.942 79.8271H199.749Z" fill="#FEA000"/>
<path d="M152.117 151.748C152.117 159.958 158.772 166.613 166.982 166.613C175.191 166.613 181.846 159.958 181.846 151.748C181.846 143.539 175.191 136.884 166.982 136.884C158.772 136.884 152.117 143.539 152.117 151.748Z" fill="#303030"/>
<path fill-rule="evenodd" clip-rule="evenodd" d="M157.325 151.748C157.325 146.415 161.648 142.092 166.981 142.092C172.315 142.092 176.638 146.415 176.638 151.748C176.638 157.081 172.315 161.405 166.981 161.405C161.648 161.405 157.325 157.081 157.325 151.748ZM164.16 151.748C164.16 153.306 165.424 154.569 166.981 154.569C167.73 154.569 168.447 154.272 168.976 153.743C169.505 153.214 169.802 152.496 169.802 151.748C169.802 150.19 168.539 148.927 166.981 148.927C165.424 148.927 164.16 150.19 164.16 151.748Z" fill="#A1A1A1"/>
<path d="M38.409 151.748C38.409 159.958 45.0641 166.613 53.2735 166.613C61.4829 166.613 68.138 159.958 68.138 151.748C68.138 143.539 61.4829 136.884 53.2735 136.884C49.3312 136.884 45.5503 138.45 42.7627 141.237C39.9751 144.025 38.409 147.806 38.409 151.748Z" fill="#303030"/>
<path fill-rule="evenodd" clip-rule="evenodd" d="M43.617 151.748C43.617 146.415 47.9404 142.092 53.2735 142.092C55.8349 142.091 58.2916 143.108 60.1027 144.919C61.9139 146.73 62.931 149.187 62.93 151.748C62.93 157.081 58.6066 161.405 53.2735 161.405C47.9404 161.405 43.617 157.081 43.617 151.748ZM50.4525 151.748C50.4525 153.306 51.7155 154.569 53.2735 154.569C54.0217 154.569 54.7392 154.272 55.2682 153.743C55.7973 153.214 56.0945 152.496 56.0945 151.748C56.0945 150.19 54.8315 148.927 53.2735 148.927C51.7155 148.927 50.4525 150.19 50.4525 151.748Z" fill="#A1A1A1"/>
<path d="M0.603983 144.927H10.416L14.756 132.269H0.603983V144.927Z" fill="#FEA000"/>
<rect x="0.603983" y="46.6731" width="142.858" height="89.8127" fill="#FEA000"/>
<path d="M0 143.723H10.85V151.56H0V143.723Z" fill="#303030"/>
<path d="M201.289 142.515C201.105 142.498 200.92 142.498 200.736 142.515H198.302C198.118 142.498 197.933 142.498 197.748 142.515H195.904V146.735H203.137V142.515H201.289Z" fill="#FEA000"/>
<path d="M212.58 116.204L214.66 115.842L204.627 91.7946L200.649 91.093C205.018 100.97 212.58 116.204 212.58 116.204Z" fill="#333333"/>
<path d="M160.942 104.551L203.003 115.853L191.318 89.4329L160.942 84.0803V104.551Z" fill="#3F3F3F"/>
<path d="M197.788 84.0477C198.616 86.4378 199.565 88.7844 200.631 91.0785L204.609 91.7801L201.383 84.0477L197.788 84.0477Z" fill="#454545"/>
<path d="M160.942 84.0477V84.0803L191.318 89.4329L188.935 84.0477H160.942Z" fill="#575757"/>
<path d="M199.749 79.8271C199.749 79.8271 195.083 56.7817 152.768 56.8721V75.2845L160.942 79.8271H199.749Z" fill="#FEA000"/>
<path d="M0.603983 144.927H10.416L14.756 132.269H0.603983V144.927Z" fill="#FEA000"/>
<path d="M37.4614 131.256C54.7129 121.853 61.3676 116.316 65.6172 106.894C70.6263 95.7874 77.0278 77.2122 77.9681 76.4853C84.7783 71.2158 96.9701 59.4399 102.135 54.3838C102.227 54.2534 102.223 54.0778 102.125 53.9518C102.026 53.8258 101.857 53.7794 101.708 53.8377C94.5288 58.449 76.1706 70.1633 75.1724 70.1633C43.5411 70.1633 50.4995 90.9953 50.4995 90.9953C47.4977 90.0369 19.3492 80.7565 0.589517 74.5721V79.1616L35.4433 90.5975C35.7036 90.6843 35.9242 90.8614 36.0654 91.0966L38.503 95.2051C38.5142 95.2242 38.5126 95.2481 38.4991 95.2656C38.4856 95.2831 38.4628 95.2906 38.4415 95.2847L0.603983 82.8795V85.9212L40.4452 98.9846C40.6922 99.0667 40.9014 99.2348 41.0347 99.4583L43.4759 103.581C43.4883 103.601 43.4867 103.626 43.472 103.644C43.4572 103.663 43.4326 103.669 43.4109 103.661L3.76495 90.6626C3.72486 90.6507 3.68173 90.6667 3.65912 90.7019C3.63651 90.7371 3.63984 90.783 3.6673 90.8145C4.89697 92.1165 6.1411 93.4257 7.38885 94.7241C7.54234 94.8882 7.73352 95.0123 7.94582 95.0858L45.2481 107.317C45.5895 107.43 45.8785 107.663 46.0619 107.972L48.4344 111.968C48.4442 111.988 48.4413 112.011 48.4271 112.028C48.4129 112.045 48.3901 112.051 48.3693 112.044L13.6493 100.663C13.5707 100.637 13.4849 100.669 13.4425 100.74C13.4002 100.811 13.4124 100.902 13.4721 100.959C21.2009 108.677 28.1015 114.822 30.7055 115.082L21.19 136.489H31.2299C33.201 134.272 35.2625 132.457 37.4614 131.256Z" fill="white"/>
</svg>
